<svg 
 xmlns="http://www.w3.org/2000/svg"
 xmlns:xlink="http://www.w3.org/1999/xlink"
 width="45px" height="45px">
<path fill-rule="evenodd"  fill="rgb(0, 0, 62)"
 d="M41.938,45.000 C41.938,45.000 41.938,45.000 3.062,45.000 C1.373,45.000 -0.000,43.627 -0.000,41.938 C-0.000,41.938 -0.000,41.938 -0.000,28.720 C-0.000,27.032 1.373,25.659 3.062,25.659 L6.998,25.659 L6.998,22.451 C6.998,22.451 6.998,22.451 6.003,22.451 C5.698,23.354 4.844,24.006 3.839,24.006 C2.580,24.006 1.555,22.982 1.555,21.722 C1.555,21.722 1.555,21.722 1.555,18.612 C1.555,17.353 2.580,16.328 3.839,16.328 C4.844,16.328 5.698,16.980 6.003,17.883 L9.330,17.883 C9.330,17.883 9.330,17.883 9.330,2.284 C9.330,1.025 10.355,-0.000 11.614,-0.000 C11.614,-0.000 11.614,-0.000 33.385,-0.000 C34.645,-0.000 35.669,1.025 35.669,2.284 L35.669,17.883 C35.669,17.883 35.669,17.883 38.997,17.883 C39.302,16.980 40.156,16.328 41.161,16.328 C42.420,16.328 43.445,17.353 43.445,18.612 C43.445,18.612 43.445,18.612 43.445,21.722 C43.445,22.982 42.420,24.006 41.161,24.006 C40.156,24.006 39.302,23.354 38.997,22.451 L38.002,22.451 L38.002,25.659 L41.938,25.659 C43.627,25.659 45.000,27.032 45.000,28.720 C45.000,28.720 45.000,28.720 45.000,41.938 C45.000,43.627 43.627,45.000 41.938,45.000 ZM4.665,18.612 C4.665,18.157 4.295,17.786 3.839,17.786 C3.383,17.786 3.013,18.157 3.013,18.612 C3.013,18.612 3.013,18.612 3.013,21.722 C3.013,22.178 3.383,22.549 3.839,22.549 C4.295,22.549 4.665,22.178 4.665,21.722 C4.665,21.722 4.665,21.722 4.665,18.612 ZM40.335,21.722 C40.335,22.178 40.705,22.549 41.161,22.549 C41.616,22.549 41.987,22.178 41.987,21.722 C41.987,21.722 41.987,21.722 41.987,18.612 C41.987,18.157 41.616,17.786 41.161,17.786 C40.705,17.786 40.335,18.157 40.335,18.612 C40.335,18.612 40.335,18.612 40.335,21.722 ZM34.212,2.284 C34.212,1.828 33.841,1.458 33.385,1.458 C33.385,1.458 33.385,1.458 11.614,1.458 C11.159,1.458 10.788,1.828 10.788,2.284 L10.788,17.883 L34.212,17.883 C34.212,17.883 34.212,17.883 34.212,2.284 ZM38.877,20.994 L38.877,19.341 L6.123,19.341 L6.123,20.994 L38.877,20.994 ZM14.774,22.451 C15.021,23.379 15.733,24.249 16.844,24.956 C18.343,25.911 20.352,26.436 22.500,26.436 C24.648,26.436 26.656,25.911 28.156,24.956 C29.267,24.249 29.979,23.379 30.226,22.451 C30.226,22.451 30.226,22.451 14.774,22.451 ZM43.542,28.720 C43.542,27.836 42.823,27.117 41.938,27.117 C41.938,27.117 41.938,27.117 37.273,27.117 C36.870,27.117 36.544,26.790 36.544,26.388 L36.544,22.451 C36.544,22.451 36.544,22.451 31.719,22.451 C31.474,23.881 30.509,25.187 28.939,26.186 C27.208,27.287 24.921,27.894 22.500,27.894 C20.078,27.894 17.792,27.287 16.061,26.186 C14.491,25.187 13.526,23.881 13.281,22.451 L8.456,22.451 C8.456,22.451 8.456,22.451 8.456,26.388 C8.456,26.790 8.129,27.117 7.727,27.117 C7.727,27.117 7.727,27.117 3.062,27.117 C2.177,27.117 1.458,27.836 1.458,28.720 C1.458,28.720 1.458,28.720 1.458,41.938 C1.458,42.823 2.177,43.542 3.062,43.542 C3.062,43.542 3.062,43.542 41.938,43.542 C42.823,43.542 43.542,42.823 43.542,41.938 C43.542,41.938 43.542,41.938 43.542,28.720 ZM39.606,32.892 C39.606,32.892 39.606,32.892 38.051,32.892 C37.648,32.892 37.322,32.566 37.322,32.163 C37.322,31.760 37.648,31.434 38.051,31.434 L39.606,31.434 C40.008,31.434 40.335,31.760 40.335,32.163 C40.335,32.566 40.008,32.892 39.606,32.892 ZM38.002,35.273 C38.002,35.676 37.676,36.002 37.273,36.002 C37.273,36.002 37.273,36.002 35.718,36.002 C35.315,36.002 34.989,35.676 34.989,35.273 C34.989,34.871 35.315,34.544 35.718,34.544 L37.273,34.544 C37.676,34.544 38.002,34.871 38.002,35.273 ZM34.941,32.892 C34.941,32.892 34.941,32.892 33.385,32.892 C32.983,32.892 32.657,32.566 32.657,32.163 C32.657,31.760 32.983,31.434 33.385,31.434 C33.385,31.434 33.385,31.434 34.941,31.434 C35.343,31.434 35.669,31.760 35.669,32.163 C35.669,32.566 35.343,32.892 34.941,32.892 ZM33.337,35.273 C33.337,35.676 33.011,36.002 32.608,36.002 C32.608,36.002 32.608,36.002 31.053,36.002 C30.650,36.002 30.324,35.676 30.324,35.273 C30.324,34.871 30.650,34.544 31.053,34.544 C31.053,34.544 31.053,34.544 32.608,34.544 C33.011,34.544 33.337,34.871 33.337,35.273 ZM30.275,32.892 C30.275,32.892 30.275,32.892 28.720,32.892 C28.318,32.892 27.991,32.566 27.991,32.163 C27.991,31.760 28.318,31.434 28.720,31.434 C28.720,31.434 28.720,31.434 30.275,31.434 C30.678,31.434 31.004,31.760 31.004,32.163 C31.004,32.566 30.678,32.892 30.275,32.892 ZM28.672,35.273 C28.672,35.676 28.345,36.002 27.943,36.002 C27.943,36.002 27.943,36.002 26.388,36.002 C25.985,36.002 25.659,35.676 25.659,35.273 C25.659,34.871 25.985,34.544 26.388,34.544 C26.388,34.544 26.388,34.544 27.943,34.544 C28.345,34.544 28.672,34.871 28.672,35.273 ZM25.610,32.892 C25.610,32.892 25.610,32.892 24.055,32.892 C23.652,32.892 23.326,32.566 23.326,32.163 C23.326,31.760 23.652,31.434 24.055,31.434 C24.055,31.434 24.055,31.434 25.610,31.434 C26.013,31.434 26.339,31.760 26.339,32.163 C26.339,32.566 26.013,32.892 25.610,32.892 ZM24.006,35.273 C24.006,35.676 23.680,36.002 23.277,36.002 C23.277,36.002 23.277,36.002 21.722,36.002 C21.320,36.002 20.993,35.676 20.993,35.273 C20.993,34.871 21.320,34.544 21.722,34.544 C21.722,34.544 21.722,34.544 23.277,34.544 C23.680,34.544 24.006,34.871 24.006,35.273 ZM20.945,32.892 C20.945,32.892 20.945,32.892 19.390,32.892 C18.987,32.892 18.661,32.566 18.661,32.163 C18.661,31.760 18.987,31.434 19.390,31.434 C19.390,31.434 19.390,31.434 20.945,31.434 C21.347,31.434 21.674,31.760 21.674,32.163 C21.674,32.566 21.347,32.892 20.945,32.892 ZM19.341,35.273 C19.341,35.676 19.015,36.002 18.612,36.002 C18.612,36.002 18.612,36.002 17.057,36.002 C16.655,36.002 16.328,35.676 16.328,35.273 C16.328,34.871 16.655,34.544 17.057,34.544 C17.057,34.544 17.057,34.544 18.612,34.544 C19.015,34.544 19.341,34.871 19.341,35.273 ZM16.280,32.892 C16.280,32.892 16.280,32.892 14.725,32.892 C14.322,32.892 13.996,32.566 13.996,32.163 C13.996,31.760 14.322,31.434 14.725,31.434 C14.725,31.434 14.725,31.434 16.280,31.434 C16.682,31.434 17.009,31.760 17.009,32.163 C17.009,32.566 16.682,32.892 16.280,32.892 ZM14.676,35.273 C14.676,35.676 14.350,36.002 13.947,36.002 C13.947,36.002 13.947,36.002 12.392,36.002 C11.989,36.002 11.663,35.676 11.663,35.273 C11.663,34.871 11.989,34.544 12.392,34.544 C12.392,34.544 12.392,34.544 13.947,34.544 C14.350,34.544 14.676,34.871 14.676,35.273 ZM11.614,32.892 C11.614,32.892 11.614,32.892 10.059,32.892 C9.657,32.892 9.330,32.566 9.330,32.163 C9.330,31.760 9.657,31.434 10.059,31.434 C10.059,31.434 10.059,31.434 11.614,31.434 C12.017,31.434 12.343,31.760 12.343,32.163 C12.343,32.566 12.017,32.892 11.614,32.892 ZM10.011,35.273 C10.011,35.676 9.684,36.002 9.282,36.002 C9.282,36.002 9.282,36.002 7.727,36.002 C7.324,36.002 6.998,35.676 6.998,35.273 C6.998,34.871 7.324,34.544 7.727,34.544 C7.727,34.544 7.727,34.544 9.282,34.544 C9.684,34.544 10.011,34.871 10.011,35.273 ZM6.949,32.892 C6.949,32.892 6.949,32.892 5.394,32.892 C4.991,32.892 4.665,32.566 4.665,32.163 C4.665,31.760 4.991,31.434 5.394,31.434 C5.394,31.434 5.394,31.434 6.949,31.434 C7.352,31.434 7.678,31.760 7.678,32.163 C7.678,32.566 7.352,32.892 6.949,32.892 ZM10.059,37.654 L11.614,37.654 C12.017,37.654 12.343,37.981 12.343,38.383 C12.343,38.786 12.017,39.112 11.614,39.112 C11.614,39.112 11.614,39.112 10.059,39.112 C9.657,39.112 9.330,38.786 9.330,38.383 C9.330,37.981 9.657,37.654 10.059,37.654 ZM14.725,37.654 L30.275,37.654 C30.678,37.654 31.004,37.981 31.004,38.383 C31.004,38.786 30.678,39.112 30.275,39.112 C30.275,39.112 30.275,39.112 14.725,39.112 C14.322,39.112 13.996,38.786 13.996,38.383 C13.996,37.981 14.322,37.654 14.725,37.654 ZM33.385,37.654 L34.941,37.654 C35.343,37.654 35.669,37.981 35.669,38.383 C35.669,38.786 35.343,39.112 34.941,39.112 C34.941,39.112 34.941,39.112 33.385,39.112 C32.983,39.112 32.657,38.786 32.657,38.383 C32.657,37.981 32.983,37.654 33.385,37.654 ZM14.725,6.220 L30.275,6.220 C30.678,6.220 31.004,6.547 31.004,6.949 C31.004,7.352 30.678,7.678 30.275,7.678 C30.275,7.678 30.275,7.678 14.725,7.678 C14.322,7.678 13.996,7.352 13.996,6.949 C13.996,6.547 14.322,6.220 14.725,6.220 ZM14.725,10.108 L30.275,10.108 C30.678,10.108 31.004,10.434 31.004,10.837 C31.004,11.239 30.678,11.566 30.275,11.566 C30.275,11.566 30.275,11.566 14.725,11.566 C14.322,11.566 13.996,11.239 13.996,10.837 C13.996,10.434 14.322,10.108 14.725,10.108 Z"/>
</svg>