<svg 
 xmlns="http://www.w3.org/2000/svg"
 xmlns:xlink="http://www.w3.org/1999/xlink"
 width="54px" height="39px">
<path fill-rule="evenodd"  fill="rgb(0, 0, 62)"
 d="M50.449,35.359 L36.864,35.359 C36.864,35.359 36.864,35.359 36.864,37.506 C36.864,38.113 36.505,38.655 35.950,38.887 C35.765,38.964 35.572,39.001 35.381,39.001 C34.996,39.001 34.619,38.849 34.335,38.563 L31.159,35.359 C31.159,35.359 31.159,35.359 25.196,35.359 C23.237,35.359 21.644,33.752 21.644,31.777 C21.644,31.777 21.644,31.777 21.644,31.665 C21.023,31.889 20.384,32.077 19.728,32.225 C19.728,32.225 19.728,32.225 19.728,35.043 C19.728,35.758 19.305,36.398 18.649,36.671 C18.432,36.762 18.204,36.806 17.979,36.806 C17.525,36.807 17.080,36.628 16.745,36.289 C16.745,36.289 16.745,36.289 12.753,32.264 C8.959,31.439 5.589,29.262 3.240,26.114 C0.789,22.828 -0.332,18.742 0.085,14.610 C0.849,7.040 6.842,0.939 14.335,0.103 C19.008,-0.418 23.493,1.022 26.965,4.158 C29.256,6.227 30.892,8.895 31.725,11.822 L50.449,11.822 C52.407,11.822 54.000,13.429 54.000,15.403 C54.000,15.403 54.000,15.403 54.000,31.777 C54.000,33.752 52.407,35.359 50.449,35.359 ZM25.837,5.429 C23.145,2.998 19.771,1.705 16.197,1.705 C15.642,1.705 15.084,1.736 14.521,1.799 C11.289,2.159 8.225,3.665 5.893,6.040 C3.562,8.414 2.097,11.519 1.767,14.783 C1.394,18.487 2.397,22.146 4.591,25.088 C6.742,27.971 9.848,29.945 13.337,30.644 C13.501,30.677 13.652,30.758 13.770,30.877 C13.770,30.877 13.770,30.877 17.941,35.084 C17.955,35.098 17.967,35.110 18.002,35.096 C18.037,35.081 18.037,35.063 18.037,35.043 C18.037,35.043 18.037,35.043 18.037,31.526 C18.037,31.113 18.330,30.759 18.734,30.687 C25.646,29.443 30.663,23.400 30.663,16.317 C30.663,12.168 28.904,8.199 25.837,5.429 ZM52.309,15.403 C52.309,14.369 51.474,13.527 50.449,13.527 C50.449,13.527 50.449,13.527 32.114,13.527 C32.272,14.443 32.354,15.376 32.354,16.317 C32.354,22.664 28.748,28.262 23.335,30.946 C23.335,30.946 23.335,30.946 23.335,31.777 C23.335,32.812 24.170,33.653 25.196,33.653 C25.196,33.653 25.196,33.653 31.509,33.653 C31.733,33.653 31.948,33.743 32.107,33.903 L35.173,36.996 C35.173,36.996 35.173,36.996 35.173,34.506 C35.173,34.035 35.551,33.653 36.018,33.653 C36.018,33.653 36.018,33.653 50.449,33.653 C51.474,33.653 52.309,32.812 52.309,31.777 L52.309,31.777 C52.309,31.777 52.309,31.777 52.309,15.403 ZM38.420,28.742 C38.255,28.908 38.038,28.991 37.822,28.991 C37.606,28.991 37.389,28.908 37.224,28.742 C37.224,28.742 37.224,28.742 32.717,24.195 C32.386,23.862 32.386,23.322 32.717,22.989 C33.047,22.656 33.582,22.656 33.912,22.989 L37.822,26.933 C37.822,26.933 37.822,26.933 46.243,18.439 C46.574,18.106 47.109,18.106 47.439,18.439 C47.769,18.772 47.769,19.312 47.439,19.645 C47.439,19.645 47.439,19.645 38.420,28.742 ZM17.717,18.762 C17.302,18.888 17.022,19.259 17.022,19.684 C17.022,19.684 17.022,19.684 17.022,19.956 C17.022,20.427 16.644,20.809 16.177,20.809 C15.710,20.809 15.331,20.427 15.331,19.956 C15.331,19.956 15.331,19.956 15.331,19.684 C15.331,18.499 16.095,17.472 17.231,17.129 C18.767,16.664 19.841,15.208 19.841,13.589 C19.841,12.627 19.453,11.706 18.748,10.995 C18.043,10.284 17.130,9.893 16.176,9.893 C14.156,9.893 12.513,11.551 12.513,13.588 C12.513,14.059 12.134,14.441 11.667,14.441 C11.200,14.441 10.822,14.059 10.822,13.588 C10.822,10.611 13.224,8.188 16.176,8.187 C17.581,8.187 18.919,8.756 19.943,9.789 C20.968,10.822 21.532,12.172 21.532,13.589 C21.532,15.956 19.963,18.083 17.717,18.762 ZM16.176,22.741 C16.177,22.741 16.177,22.741 16.177,22.741 C16.644,22.741 17.023,23.123 17.023,23.594 C17.023,23.594 17.023,23.594 17.023,23.594 C17.023,23.595 17.023,23.595 17.023,23.595 C17.023,24.066 16.644,24.448 16.177,24.448 C16.177,24.448 16.176,24.448 16.176,24.448 C15.709,24.448 15.330,24.066 15.330,23.595 C15.330,23.595 15.330,23.595 15.330,23.594 C15.330,23.594 15.330,23.594 15.330,23.594 C15.330,23.123 15.709,22.741 16.176,22.741 Z"/>
</svg>