<svg 
 xmlns="http://www.w3.org/2000/svg"
 xmlns:xlink="http://www.w3.org/1999/xlink"
 width="57px" height="45px">
<path fill-rule="evenodd"  fill="rgb(0, 0, 62)"
 d="M47.718,36.041 C42.443,39.965 35.444,42.126 28.010,42.126 C24.182,42.126 20.471,41.554 16.970,40.424 C12.709,43.102 7.234,44.885 6.997,44.962 C6.904,44.992 6.810,45.007 6.716,45.007 C6.448,45.007 6.188,44.888 6.012,44.674 C5.775,44.386 5.742,43.983 5.928,43.660 C5.948,43.624 7.854,40.301 9.290,36.733 C3.376,32.739 0.001,27.063 0.001,21.063 C0.001,15.387 2.949,10.068 8.302,6.085 C13.577,2.161 20.576,-0.001 28.010,-0.001 C35.444,-0.001 42.443,2.161 47.718,6.085 C53.070,10.068 56.018,15.387 56.018,21.063 C56.018,26.739 53.070,32.058 47.718,36.041 ZM28.010,1.800 C13.566,1.800 1.816,10.441 1.816,21.063 C1.816,26.645 5.124,31.953 10.891,35.625 C11.252,35.855 11.401,36.304 11.250,36.702 C10.424,38.866 9.405,40.969 8.638,42.455 C10.701,41.659 13.833,40.320 16.345,38.682 C16.579,38.529 16.871,38.493 17.135,38.582 C20.570,39.739 24.228,40.326 28.010,40.326 C42.453,40.326 54.204,31.684 54.204,21.063 C54.204,10.441 42.453,1.800 28.010,1.800 ZM40.799,27.801 L15.201,27.801 C14.648,27.801 14.201,27.355 14.201,26.806 C14.201,26.256 14.648,25.811 15.201,25.811 C15.201,25.811 15.201,25.811 40.799,25.811 C41.351,25.811 41.799,26.256 41.799,26.806 C41.799,27.355 41.351,27.801 40.799,27.801 ZM40.799,22.495 L15.201,22.495 C14.648,22.495 14.201,22.050 14.201,21.500 C14.201,20.951 14.648,20.505 15.201,20.505 C15.201,20.505 15.201,20.505 40.799,20.505 C41.351,20.505 41.799,20.951 41.799,21.500 C41.799,22.050 41.351,22.495 40.799,22.495 ZM40.799,17.189 L15.201,17.189 C14.648,17.189 14.201,16.744 14.201,16.194 C14.201,15.645 14.648,15.199 15.201,15.199 C15.201,15.199 15.201,15.199 40.799,15.199 C41.351,15.199 41.799,15.645 41.799,16.194 C41.799,16.744 41.351,17.189 40.799,17.189 Z"/>
</svg>