<svg 
 xmlns="http://www.w3.org/2000/svg"
 xmlns:xlink="http://www.w3.org/1999/xlink"
 width="54px" height="45px">
<path fill-rule="evenodd"  fill="rgb(0, 0, 62)"
 d="M50.326,45.000 C50.326,45.000 50.326,45.000 3.674,45.000 C1.648,45.000 -0.000,43.340 -0.000,41.299 C-0.000,41.299 -0.000,41.299 -0.000,3.701 C-0.000,1.660 1.648,-0.000 3.674,-0.000 C3.674,-0.000 3.674,-0.000 36.330,-0.000 C38.871,-0.000 40.937,2.082 40.937,4.641 C40.937,5.192 41.382,5.640 41.929,5.640 L50.326,5.640 C52.352,5.640 54.000,7.300 54.000,9.341 C54.000,9.341 54.000,9.341 54.000,41.299 C54.000,43.340 52.352,45.000 50.326,45.000 ZM24.259,4.641 C24.259,3.054 22.977,1.762 21.402,1.762 L17.998,1.762 C18.344,2.327 18.544,2.991 18.544,3.701 C18.544,3.701 18.544,3.701 18.544,4.641 C18.544,5.192 18.989,5.640 19.536,5.640 C19.536,5.640 19.536,5.640 24.445,5.640 C24.326,5.330 24.259,4.993 24.259,4.641 ZM31.724,4.641 C31.724,3.054 30.442,1.762 28.866,1.762 C28.866,1.762 28.866,1.762 25.011,1.762 C25.635,2.554 26.009,3.554 26.009,4.641 C26.009,5.192 26.453,5.640 27.000,5.640 C27.000,5.640 27.000,5.640 31.910,5.640 C31.790,5.330 31.724,4.993 31.724,4.641 ZM39.188,4.641 C39.188,3.054 37.906,1.762 36.330,1.762 C36.330,1.762 36.330,1.762 32.476,1.762 C33.099,2.554 33.473,3.554 33.473,4.641 C33.473,5.192 33.918,5.640 34.464,5.640 C34.464,5.640 34.464,5.640 39.374,5.640 C39.254,5.330 39.188,4.993 39.188,4.641 ZM52.250,9.341 C52.250,8.272 51.387,7.402 50.326,7.402 C50.326,7.402 50.326,7.402 19.536,7.402 C18.024,7.402 16.795,6.163 16.795,4.641 C16.795,4.641 16.795,4.641 16.795,3.701 C16.795,2.632 15.931,1.762 14.870,1.762 L13.937,1.762 C13.937,1.762 13.937,1.762 3.674,1.762 C2.613,1.762 1.749,2.632 1.749,3.701 C1.749,3.701 1.749,3.701 1.749,41.299 C1.749,42.368 2.613,43.238 3.674,43.238 C3.674,43.238 3.674,43.238 50.326,43.238 C51.387,43.238 52.250,42.368 52.250,41.299 C52.250,41.299 52.250,41.299 52.250,9.341 ZM23.320,25.991 C21.183,25.991 19.527,24.503 19.527,21.887 C19.527,19.199 21.279,17.686 23.344,17.686 C25.672,17.686 27.112,19.295 27.112,21.791 C27.112,24.767 25.240,25.991 23.320,25.991 ZM23.320,18.887 C21.903,18.887 21.256,20.447 21.256,21.887 C21.256,23.567 22.192,24.791 23.320,24.791 C24.592,24.791 25.384,23.567 25.384,21.839 C25.384,20.447 24.808,18.887 23.320,18.887 ZM11.919,25.175 C11.007,23.423 10.167,21.647 9.446,19.871 L9.374,19.895 C9.470,21.911 9.518,23.711 9.518,26.471 L9.518,32.928 L7.646,32.928 L7.646,17.326 L9.950,17.326 L14.031,25.031 C14.967,26.879 15.807,28.607 16.479,30.240 L16.503,30.216 C16.335,28.031 16.287,26.207 16.287,23.735 L16.287,17.326 L18.159,17.326 L18.159,32.928 L16.023,32.928 L11.919,25.175 ZM26.488,28.271 L20.175,28.271 L20.175,27.023 L26.488,27.023 L26.488,28.271 Z"/>
</svg>