<svg 
 xmlns="http://www.w3.org/2000/svg"
 xmlns:xlink="http://www.w3.org/1999/xlink"
 width="57px" height="45px">
<path fill-rule="evenodd"  fill="rgb(0, 0, 62)"
 d="M28.010,-0.001 C20.576,-0.001 13.577,2.161 8.302,6.085 C2.949,10.068 0.001,15.387 0.001,21.063 C0.001,27.063 3.376,32.739 9.290,36.733 C7.854,40.301 5.948,43.624 5.928,43.660 C5.742,43.983 5.776,44.386 6.012,44.674 C6.188,44.889 6.448,45.007 6.716,45.007 C6.810,45.007 6.904,44.992 6.997,44.962 C7.234,44.885 12.709,43.102 16.970,40.424 C20.471,41.554 24.182,42.126 28.010,42.126 C35.444,42.126 42.443,39.965 47.718,36.041 C53.071,32.058 56.018,26.739 56.018,21.063 C56.018,15.387 53.071,10.068 47.718,6.085 C42.443,2.161 35.444,-0.001 28.010,-0.001 ZM17.135,38.582 C16.871,38.493 16.579,38.529 16.345,38.682 C13.833,40.320 10.701,41.659 8.638,42.455 C9.405,40.969 10.424,38.866 11.250,36.702 C11.401,36.304 11.252,35.855 10.891,35.625 C5.124,31.953 1.816,26.645 1.816,21.063 C1.816,10.441 13.566,1.800 28.010,1.800 C42.453,1.800 54.204,10.441 54.204,21.063 C54.204,31.685 42.453,40.326 28.010,40.326 C24.229,40.326 20.570,39.739 17.135,38.582 ZM25.167,32.585 C25.167,34.140 26.442,35.405 28.010,35.405 C29.578,35.405 30.853,34.140 30.853,32.585 C30.853,31.029 29.578,29.764 28.010,29.764 C26.442,29.764 25.167,31.029 25.167,32.585 ZM26.981,32.585 C26.981,32.022 27.443,31.565 28.010,31.565 C28.577,31.565 29.038,32.022 29.038,32.585 C29.038,33.147 28.577,33.605 28.010,33.605 C27.443,33.605 26.981,33.147 26.981,32.585 ZM28.014,27.724 C29.100,27.724 29.991,26.880 30.042,25.804 C30.805,9.628 30.805,9.628 30.805,9.628 C30.828,9.123 30.640,8.622 30.288,8.257 C29.936,7.890 29.441,7.681 28.931,7.681 C27.088,7.681 27.088,7.681 27.088,7.681 C26.578,7.681 26.084,7.890 25.732,8.257 C25.379,8.622 25.191,9.123 25.215,9.628 C25.978,25.804 25.978,25.804 25.978,25.804 C26.029,26.880 26.919,27.724 28.006,27.724 L28.014,27.724 ZM27.088,9.481 C28.931,9.481 28.931,9.481 28.931,9.481 C28.938,9.481 28.957,9.481 28.975,9.499 C28.993,9.518 28.992,9.537 28.992,9.544 C28.228,25.720 28.228,25.720 28.228,25.720 C28.223,25.834 28.129,25.923 28.013,25.923 C28.006,25.923 28.006,25.923 28.006,25.923 C27.891,25.923 27.796,25.834 27.791,25.720 C27.028,9.544 27.028,9.544 27.028,9.544 C27.027,9.537 27.027,9.518 27.044,9.499 C27.062,9.481 27.081,9.481 27.088,9.481 Z"/>
</svg>