<svg 
 xmlns="http://www.w3.org/2000/svg"
 xmlns:xlink="http://www.w3.org/1999/xlink"
 width="48px" height="63px">
<path fill-rule="evenodd"  fill="rgb(0, 0, 62)"
 d="M34.899,57.346 C31.594,59.961 28.025,61.852 24.288,62.969 C24.190,62.998 24.091,63.013 23.991,63.013 C23.890,63.013 23.790,62.998 23.693,62.969 C19.956,61.853 16.387,59.961 13.082,57.346 C4.884,50.861 -0.009,40.445 -0.009,29.484 C-0.009,29.484 -0.009,29.484 -0.009,9.435 C-0.009,8.855 0.458,8.384 1.034,8.384 C16.368,8.384 23.122,0.438 23.189,0.358 C23.586,-0.120 24.394,-0.121 24.791,0.357 C24.888,0.472 31.716,8.385 46.947,8.385 C47.523,8.385 47.991,8.856 47.991,9.436 C47.991,9.436 47.991,9.436 47.991,29.484 C47.991,40.445 43.097,50.860 34.899,57.346 ZM45.904,10.475 C33.129,10.189 26.218,4.701 23.991,2.548 C21.763,4.700 14.852,10.189 2.078,10.475 C2.078,10.475 2.078,10.475 2.078,29.486 C2.078,39.806 6.673,49.606 14.372,55.696 C17.380,58.076 20.615,59.815 23.991,60.865 C27.366,59.814 30.601,58.076 33.609,55.696 C41.308,49.605 45.904,39.806 45.904,29.486 C45.904,29.486 45.904,29.486 45.904,10.475 ZM31.031,52.393 C28.919,54.063 26.678,55.372 24.371,56.283 C24.249,56.331 24.120,56.355 23.991,56.355 C23.861,56.355 23.733,56.331 23.610,56.283 C21.302,55.371 19.061,54.062 16.951,52.393 C10.251,47.092 6.251,38.529 6.251,29.487 C6.251,29.487 6.251,29.487 6.251,15.349 C6.251,14.821 6.642,14.374 7.163,14.307 C14.886,13.315 20.258,10.542 23.404,8.390 C23.758,8.147 24.223,8.147 24.577,8.390 C27.723,10.542 33.095,13.315 40.818,14.307 C41.339,14.374 41.730,14.821 41.730,15.349 C41.730,15.349 41.730,15.349 41.730,29.487 C41.730,38.529 37.730,47.092 31.031,52.393 ZM39.643,16.264 C32.444,15.192 27.251,12.644 23.991,10.518 C20.730,12.644 15.537,15.192 8.338,16.264 C8.338,16.264 8.338,16.264 8.338,29.484 C8.338,37.888 12.041,45.833 18.241,50.739 C20.074,52.190 22.007,53.343 23.991,54.170 C25.974,53.344 27.907,52.190 29.741,50.739 C35.942,45.834 39.643,37.889 39.643,29.486 L39.643,16.264 ZM21.938,40.952 C21.927,40.952 21.915,40.952 21.904,40.952 C21.627,40.952 21.362,40.842 21.166,40.644 C21.166,40.644 21.166,40.644 12.818,32.240 C12.410,31.829 12.410,31.165 12.818,30.755 C13.226,30.344 13.886,30.344 14.294,30.755 L21.852,38.365 C21.852,38.365 21.852,38.365 35.727,22.402 C36.106,21.966 36.765,21.921 37.199,22.303 C37.633,22.685 37.677,23.348 37.297,23.785 C37.297,23.785 37.297,23.785 22.688,40.594 C22.498,40.813 22.227,40.943 21.938,40.952 Z"/>
</svg>