<svg 
 xmlns="http://www.w3.org/2000/svg"
 xmlns:xlink="http://www.w3.org/1999/xlink"
 width="45px" height="63px">
<path fill-rule="evenodd"  fill="rgb(0, 0, 62)"
 d="M41.852,62.052 C41.852,62.052 41.852,62.052 3.180,62.052 C1.440,62.052 0.024,60.639 0.024,58.902 C0.024,58.902 0.024,58.902 0.024,11.726 C0.024,11.715 0.026,11.704 0.026,11.693 C0.026,11.681 0.027,11.670 0.028,11.658 C0.031,11.616 0.035,11.575 0.043,11.534 C0.044,11.533 0.044,11.531 0.044,11.529 C0.053,11.485 0.065,11.442 0.080,11.400 C0.082,11.392 0.085,11.384 0.088,11.376 C0.103,11.337 0.120,11.298 0.139,11.261 C0.140,11.259 0.142,11.256 0.143,11.253 C0.164,11.214 0.188,11.177 0.214,11.141 C0.220,11.134 0.226,11.125 0.232,11.117 C0.259,11.082 0.288,11.048 0.319,11.016 C0.319,11.016 0.319,11.016 0.319,11.016 C0.319,11.016 0.319,11.016 11.062,0.294 C11.062,0.294 11.062,0.294 11.062,0.293 C11.094,0.262 11.128,0.233 11.164,0.206 C11.172,0.200 11.180,0.194 11.188,0.188 C11.224,0.163 11.261,0.139 11.300,0.118 C11.302,0.116 11.305,0.115 11.307,0.114 C11.345,0.095 11.384,0.078 11.424,0.063 C11.431,0.060 11.439,0.057 11.446,0.055 C11.489,0.040 11.532,0.028 11.577,0.019 C11.578,0.018 11.578,0.018 11.579,0.018 C11.620,0.010 11.663,0.006 11.706,0.003 C11.717,0.002 11.728,0.001 11.739,0.001 C11.751,0.001 11.762,-0.001 11.774,-0.001 L41.852,-0.001 C43.592,-0.001 45.008,1.412 45.008,3.149 C45.008,3.149 45.008,3.149 45.008,58.902 C45.008,60.639 43.592,62.052 41.852,62.052 ZM10.767,3.431 L3.463,10.721 C3.463,10.721 3.463,10.721 9.625,10.721 C10.255,10.721 10.767,10.210 10.767,9.582 L10.767,3.431 ZM42.993,3.149 C42.993,2.521 42.481,2.010 41.852,2.010 L12.781,2.010 C12.781,2.010 12.781,2.010 12.781,9.582 C12.781,11.319 11.365,12.731 9.625,12.731 L2.039,12.731 C2.039,12.731 2.039,12.731 2.039,58.902 C2.039,59.531 2.551,60.042 3.180,60.042 C3.180,60.042 3.180,60.042 41.852,60.042 C42.481,60.042 42.993,59.531 42.993,58.902 C42.993,58.902 42.993,58.902 42.993,3.149 ZM35.128,48.990 C34.984,49.243 34.737,49.422 34.451,49.480 C34.165,49.538 33.868,49.470 33.637,49.292 L33.406,49.114 C33.406,49.114 33.406,49.114 32.235,51.481 C32.086,51.783 31.796,51.990 31.462,52.033 C31.128,52.077 30.794,51.950 30.573,51.697 C30.573,51.697 30.573,51.697 29.244,50.176 C29.234,50.164 29.218,50.147 29.181,50.154 C29.143,50.161 29.135,50.183 29.130,50.198 C29.130,50.198 29.130,50.198 27.694,54.324 C27.509,54.855 27.049,55.244 26.493,55.338 C26.407,55.353 26.320,55.360 26.235,55.360 C25.768,55.360 25.320,55.148 25.024,54.775 L22.399,51.465 C22.399,51.465 22.399,51.465 20.276,53.314 C19.857,53.678 19.221,53.635 18.855,53.217 C18.490,52.799 18.533,52.164 18.952,51.798 C18.952,51.798 18.952,51.798 21.871,49.258 C22.079,49.077 22.352,48.990 22.626,49.014 C22.900,49.040 23.152,49.176 23.323,49.391 L26.072,52.857 C26.072,52.857 26.072,52.857 27.228,49.538 C27.474,48.831 28.061,48.323 28.798,48.181 C29.535,48.037 30.269,48.290 30.762,48.854 L31.098,49.239 C31.098,49.239 31.098,49.239 32.144,47.125 C32.278,46.855 32.526,46.659 32.820,46.591 C33.114,46.522 33.423,46.590 33.662,46.774 L33.946,46.991 C33.946,46.991 33.946,46.991 36.016,43.333 C36.290,42.850 36.904,42.679 37.389,42.952 C37.873,43.225 38.044,43.838 37.770,44.322 C37.770,44.322 37.770,44.322 35.128,48.990 ZM35.407,34.175 L9.625,34.175 C9.069,34.175 8.618,33.725 8.618,33.170 C8.618,32.615 9.069,32.165 9.625,32.165 C9.625,32.165 9.625,32.165 35.407,32.165 C35.963,32.165 36.414,32.615 36.414,33.170 C36.414,33.725 35.963,34.175 35.407,34.175 ZM35.407,28.815 L9.625,28.815 C9.069,28.815 8.618,28.364 8.618,27.809 C8.618,27.254 9.069,26.804 9.625,26.804 C9.625,26.804 9.625,26.804 35.407,26.804 C35.963,26.804 36.414,27.254 36.414,27.809 C36.414,28.364 35.963,28.815 35.407,28.815 ZM36.414,17.355 C36.414,19.315 34.593,20.898 32.117,21.240 C32.117,21.240 32.117,21.240 32.117,21.376 C32.117,21.931 31.666,22.381 31.110,22.381 C30.554,22.381 30.103,21.931 30.103,21.376 C30.103,21.376 30.103,21.376 30.103,21.240 C27.626,20.898 25.806,19.315 25.806,17.355 C25.806,16.800 26.257,16.350 26.813,16.350 C27.369,16.350 27.820,16.800 27.820,17.355 C27.820,18.255 28.890,18.940 30.103,19.193 C30.103,19.193 30.103,19.193 30.103,15.343 C27.626,15.001 25.806,13.418 25.806,11.458 C25.806,9.499 27.626,7.916 30.103,7.574 C30.103,7.574 30.103,7.574 30.103,7.438 C30.103,6.883 30.554,6.433 31.110,6.433 C31.666,6.433 32.117,6.883 32.117,7.438 C32.117,7.438 32.117,7.438 32.117,7.574 C34.593,7.915 36.414,9.499 36.414,11.458 C36.414,12.013 35.963,12.464 35.407,12.464 C34.851,12.464 34.400,12.013 34.400,11.458 C34.400,10.559 33.330,9.874 32.117,9.621 C32.117,9.621 32.117,9.621 32.117,13.471 C34.593,13.812 36.414,15.396 36.414,17.355 ZM32.117,19.193 C33.330,18.940 34.400,18.255 34.400,17.355 C34.400,16.455 33.330,15.771 32.117,15.518 C32.117,15.518 32.117,15.518 32.117,19.193 ZM30.103,9.621 C28.890,9.874 27.820,10.559 27.820,11.458 C27.820,12.358 28.890,13.043 30.103,13.296 C30.103,13.296 30.103,13.296 30.103,9.621 ZM9.625,37.526 C9.625,37.526 9.625,37.526 22.516,37.526 C23.072,37.526 23.523,37.976 23.523,38.531 C23.523,39.086 23.072,39.536 22.516,39.536 L9.625,39.536 C9.069,39.536 8.618,39.086 8.618,38.531 C8.618,37.976 9.069,37.526 9.625,37.526 ZM9.625,42.886 C9.625,42.886 9.625,42.886 22.516,42.886 C23.072,42.886 23.523,43.337 23.523,43.892 C23.523,44.447 23.072,44.897 22.516,44.897 C22.516,44.897 22.516,44.897 9.625,44.897 C9.069,44.897 8.618,44.447 8.618,43.892 C8.618,43.337 9.069,42.886 9.625,42.886 Z"/>
</svg>