<svg 
 xmlns="http://www.w3.org/2000/svg"
 xmlns:xlink="http://www.w3.org/1999/xlink"
 width="45px" height="62px">
<path fill-rule="evenodd"  fill="rgb(0, 0, 62)"
 d="M41.750,61.828 C41.750,61.828 41.750,61.828 3.353,61.828 C1.625,61.828 0.219,60.429 0.219,58.710 C0.219,58.710 0.219,58.710 0.219,12.018 C0.219,12.007 0.221,11.996 0.221,11.985 C0.221,11.973 0.222,11.962 0.222,11.950 C0.225,11.909 0.230,11.868 0.238,11.828 C0.238,11.826 0.238,11.825 0.238,11.823 C0.247,11.779 0.260,11.737 0.274,11.695 C0.277,11.687 0.280,11.679 0.283,11.672 C0.297,11.633 0.314,11.594 0.333,11.558 C0.334,11.555 0.336,11.553 0.337,11.550 C0.358,11.511 0.381,11.475 0.407,11.439 C0.413,11.431 0.419,11.423 0.425,11.416 C0.452,11.380 0.480,11.346 0.512,11.315 C0.512,11.315 0.512,11.315 0.512,11.314 C0.512,11.314 0.512,11.314 11.178,0.703 C11.178,0.703 11.179,0.703 11.179,0.702 C11.210,0.672 11.244,0.643 11.279,0.616 C11.287,0.610 11.295,0.604 11.304,0.598 C11.339,0.573 11.376,0.549 11.415,0.529 C11.417,0.527 11.420,0.526 11.422,0.525 C11.459,0.506 11.498,0.489 11.538,0.475 C11.545,0.472 11.553,0.469 11.560,0.466 C11.602,0.452 11.645,0.439 11.690,0.431 C11.691,0.431 11.691,0.431 11.692,0.431 C11.733,0.423 11.775,0.418 11.818,0.415 C11.829,0.414 11.840,0.414 11.851,0.413 C11.863,0.413 11.874,0.412 11.885,0.412 L41.750,0.412 C43.478,0.412 44.883,1.810 44.883,3.529 C44.883,3.529 44.883,3.529 44.883,58.710 C44.883,60.429 43.478,61.828 41.750,61.828 ZM10.885,3.808 L3.633,11.023 C3.633,11.023 3.633,11.023 9.752,11.023 C10.377,11.023 10.885,10.518 10.885,9.896 L10.885,3.808 ZM42.884,3.529 C42.884,2.907 42.375,2.401 41.750,2.401 L12.885,2.401 C12.885,2.401 12.885,2.401 12.885,9.896 C12.885,11.615 11.480,13.013 9.752,13.013 L2.219,13.013 C2.219,13.013 2.219,13.013 2.219,58.710 C2.219,59.332 2.728,59.838 3.353,59.838 C3.353,59.838 3.353,59.838 41.750,59.838 C42.375,59.838 42.884,59.332 42.884,58.710 C42.884,58.710 42.884,58.710 42.884,3.529 ZM31.618,53.338 C28.420,53.338 25.818,50.750 25.818,47.568 C25.818,44.386 28.420,41.798 31.618,41.798 C34.816,41.798 37.417,44.386 37.417,47.568 C37.417,50.750 34.816,53.338 31.618,53.338 ZM31.618,43.788 C29.522,43.788 27.818,45.483 27.818,47.568 C27.818,49.653 29.522,51.349 31.618,51.349 C33.713,51.349 35.417,49.653 35.417,47.568 C35.417,45.483 33.713,43.788 31.618,43.788 ZM31.618,49.094 C30.772,49.094 30.084,48.409 30.084,47.568 C30.084,46.727 30.772,46.043 31.618,46.043 C32.463,46.043 33.151,46.727 33.151,47.568 C33.151,48.409 32.463,49.094 31.618,49.094 ZM35.351,38.481 L9.752,38.481 C9.200,38.481 8.752,38.036 8.752,37.487 C8.752,36.937 9.200,36.492 9.752,36.492 C9.752,36.492 9.752,36.492 35.351,36.492 C35.903,36.492 36.351,36.937 36.351,37.487 C36.351,38.036 35.903,38.481 35.351,38.481 ZM35.351,33.176 L9.752,33.176 C9.200,33.176 8.752,32.730 8.752,32.181 C8.752,31.631 9.200,31.186 9.752,31.186 C9.752,31.186 9.752,31.186 35.351,31.186 C35.903,31.186 36.351,31.631 36.351,32.181 C36.351,32.730 35.903,33.176 35.351,33.176 ZM35.351,27.870 L9.752,27.870 C9.200,27.870 8.752,27.424 8.752,26.875 C8.752,26.325 9.200,25.880 9.752,25.880 C9.752,25.880 9.752,25.880 35.351,25.880 C35.903,25.880 36.351,26.325 36.351,26.875 C36.351,27.424 35.903,27.870 35.351,27.870 ZM35.351,22.564 L9.752,22.564 C9.200,22.564 8.752,22.119 8.752,21.569 C8.752,21.020 9.200,20.574 9.752,20.574 C9.752,20.574 9.752,20.574 35.351,20.574 C35.903,20.574 36.351,21.020 36.351,21.569 C36.351,22.119 35.903,22.564 35.351,22.564 ZM35.351,17.258 L9.752,17.258 C9.200,17.258 8.752,16.813 8.752,16.263 C8.752,15.714 9.200,15.268 9.752,15.268 C9.752,15.268 9.752,15.268 35.351,15.268 C35.903,15.268 36.351,15.714 36.351,16.263 C36.351,16.813 35.903,17.258 35.351,17.258 ZM9.752,43.920 L22.551,43.920 C23.104,43.920 23.551,44.366 23.551,44.915 C23.551,45.465 23.104,45.910 22.551,45.910 C22.551,45.910 22.551,45.910 9.752,45.910 C9.200,45.910 8.752,45.465 8.752,44.915 C8.752,44.366 9.200,43.920 9.752,43.920 ZM9.752,49.226 L22.551,49.226 C23.104,49.226 23.551,49.671 23.551,50.221 C23.551,50.771 23.104,51.216 22.551,51.216 C22.551,51.216 22.551,51.216 9.752,51.216 C9.200,51.216 8.752,50.771 8.752,50.221 C8.752,49.671 9.200,49.226 9.752,49.226 Z"/>
</svg>