<svg 
 xmlns="http://www.w3.org/2000/svg"
 xmlns:xlink="http://www.w3.org/1999/xlink"
 width="51px" height="63px">
<path fill-rule="evenodd"  fill="rgb(0, 0, 62)"
 d="M42.993,38.000 C42.993,29.914 42.993,18.703 42.993,3.149 C42.993,2.520 42.481,2.010 41.852,2.010 L12.781,2.010 C12.781,2.010 12.781,2.010 12.781,9.582 C12.781,11.319 11.365,12.731 9.625,12.731 L2.038,12.731 C2.038,12.731 2.038,12.731 2.038,58.902 C2.038,59.530 2.551,60.042 3.180,60.042 C3.180,60.042 3.183,60.042 29.000,60.042 L29.000,62.052 C23.297,62.052 15.072,62.052 3.180,62.052 C1.440,62.052 0.024,60.639 0.024,58.902 C0.024,58.902 0.024,58.902 0.024,11.726 C0.024,11.715 0.026,11.704 0.026,11.692 C0.026,11.681 0.027,11.669 0.028,11.658 C0.031,11.615 0.035,11.574 0.043,11.534 C0.043,11.532 0.044,11.530 0.044,11.529 C0.053,11.485 0.065,11.442 0.079,11.400 C0.082,11.392 0.085,11.384 0.088,11.376 C0.103,11.337 0.120,11.298 0.139,11.261 C0.140,11.259 0.142,11.256 0.143,11.253 C0.164,11.214 0.188,11.177 0.213,11.141 C0.220,11.133 0.226,11.125 0.231,11.117 C0.259,11.082 0.288,11.047 0.319,11.016 C0.319,11.016 0.319,11.015 0.319,11.015 C0.319,11.015 0.319,11.015 11.062,0.294 C11.062,0.293 11.062,0.293 11.062,0.293 C11.094,0.262 11.128,0.233 11.164,0.206 C11.172,0.200 11.180,0.194 11.188,0.188 C11.224,0.162 11.261,0.138 11.300,0.117 C11.302,0.116 11.305,0.115 11.307,0.114 C11.345,0.095 11.384,0.077 11.424,0.063 C11.431,0.060 11.439,0.057 11.446,0.055 C11.489,0.040 11.532,0.027 11.577,0.018 C11.578,0.018 11.578,0.018 11.579,0.018 C11.620,0.010 11.663,0.005 11.706,0.002 C11.717,0.002 11.728,0.001 11.739,0.001 C11.751,0.000 11.762,-0.001 11.774,-0.001 L41.852,-0.001 C43.592,-0.001 45.008,1.412 45.008,3.149 C45.008,3.149 45.008,3.156 45.008,38.000 L42.993,38.000 ZM10.767,3.431 L3.463,10.721 C3.463,10.721 3.463,10.721 9.625,10.721 C10.255,10.721 10.767,10.210 10.767,9.582 L10.767,3.431 ZM9.625,42.886 C9.625,42.886 9.625,42.886 22.516,42.886 C23.072,42.886 23.523,43.336 23.523,43.892 C23.523,44.447 23.072,44.897 22.516,44.897 C22.516,44.897 22.516,44.897 9.625,44.897 C9.069,44.897 8.618,44.447 8.618,43.892 C8.618,43.336 9.069,42.886 9.625,42.886 ZM9.625,37.525 C9.625,37.525 9.625,37.525 22.516,37.525 C23.072,37.525 23.523,37.976 23.523,38.531 C23.523,39.086 23.072,39.536 22.516,39.536 L9.625,39.536 C9.069,39.536 8.618,39.086 8.618,38.531 C8.618,37.976 9.069,37.525 9.625,37.525 ZM35.407,28.814 L9.625,28.814 C9.069,28.814 8.618,28.364 8.618,27.809 C8.618,27.254 9.069,26.804 9.625,26.804 C9.625,26.804 9.625,26.804 35.407,26.804 C35.963,26.804 36.414,27.254 36.414,27.809 C36.414,28.364 35.963,28.814 35.407,28.814 ZM35.407,34.175 L9.625,34.175 C9.069,34.175 8.618,33.725 8.618,33.170 C8.618,32.615 9.069,32.165 9.625,32.165 C9.625,32.165 9.625,32.165 35.407,32.165 C35.963,32.165 36.414,32.615 36.414,33.170 C36.414,33.725 35.963,34.175 35.407,34.175 Z"/>
<path fill-rule="evenodd"  fill="rgb(0, 0, 62)"
 d="M36.999,17.874 C36.999,15.000 36.999,15.000 36.999,15.000 C36.999,13.895 36.102,13.084 35.055,13.084 C33.463,13.084 33.463,13.084 33.463,13.084 L30.570,9.105 C30.121,8.442 29.373,8.073 28.551,8.073 C25.316,8.073 25.316,8.073 25.316,8.073 C25.214,8.026 25.095,8.000 24.962,8.000 C24.830,8.000 24.712,8.026 24.609,8.073 C21.374,8.073 21.374,8.073 21.374,8.073 C20.551,8.073 19.804,8.442 19.355,9.105 C16.462,13.084 16.462,13.084 16.462,13.084 L14.944,13.084 C13.823,13.084 13.001,13.968 13.001,15.000 C13.001,17.874 13.001,17.874 13.001,17.874 C13.001,18.979 13.823,19.790 14.944,19.790 C16.086,19.790 16.086,19.790 16.086,19.790 C16.421,21.057 17.595,22.000 18.982,22.000 C20.368,22.000 21.543,21.057 21.877,19.790 C28.048,19.790 28.048,19.790 28.048,19.790 C28.382,21.057 29.557,22.000 30.944,22.000 C32.330,22.000 33.505,21.057 33.839,19.790 C34.981,19.790 34.981,19.790 34.981,19.790 C36.102,19.790 36.924,18.979 36.999,17.874 ZM31.638,13.084 L25.710,13.084 L25.710,9.473 L28.476,9.473 C28.850,9.473 29.149,9.621 29.299,9.842 L31.638,13.084 ZM21.299,9.473 C24.215,9.473 24.215,9.473 24.215,9.473 L24.215,13.084 L18.211,13.084 L20.477,9.842 C20.701,9.621 21.000,9.473 21.299,9.473 ZM17.486,19.053 C17.486,18.242 18.159,17.579 18.982,17.579 C19.804,17.579 20.477,18.242 20.477,19.053 C20.477,19.863 19.804,20.527 18.982,20.527 C18.159,20.527 17.486,19.863 17.486,19.053 ZM19.016,16.106 C19.004,16.106 18.993,16.105 18.982,16.105 C17.595,16.105 16.421,17.048 16.086,18.316 C14.944,18.316 14.944,18.316 14.944,18.316 C14.720,18.316 14.496,18.095 14.496,17.874 C14.496,15.000 14.496,15.000 14.496,15.000 C14.496,14.779 14.720,14.558 14.944,14.558 C16.403,14.558 16.403,14.558 16.403,14.558 C16.502,14.604 16.613,14.631 16.739,14.631 C33.186,14.631 33.186,14.631 33.186,14.631 C33.312,14.631 33.423,14.604 33.523,14.558 C35.055,14.558 35.055,14.558 35.055,14.558 C35.280,14.558 35.504,14.779 35.504,15.000 C35.504,17.874 35.504,17.874 35.504,17.874 C35.504,18.095 35.280,18.316 35.055,18.316 C33.859,18.316 33.859,18.316 33.859,18.316 C33.485,17.063 32.513,16.105 31.093,16.105 C31.066,16.105 31.039,16.106 31.012,16.107 C30.989,16.107 30.966,16.105 30.943,16.105 C29.556,16.105 28.382,17.048 28.048,18.316 C21.972,18.316 21.972,18.316 21.972,18.316 C21.598,17.063 20.477,16.105 19.056,16.105 C19.043,16.105 19.029,16.106 19.016,16.106 ZM29.448,19.053 C29.448,18.242 30.121,17.579 30.943,17.579 C31.766,17.579 32.439,18.242 32.439,19.053 C32.439,19.864 31.766,20.527 30.943,20.527 C30.121,20.527 29.448,19.863 29.448,19.053 Z"/>
<path fill-rule="evenodd"  fill="rgb(0, 0, 62)"
 d="M29.999,62.000 L29.007,62.000 L29.007,50.404 L29.000,50.383 L29.000,45.668 L29.000,44.708 L30.000,44.708 L33.000,44.708 C33.000,44.708 33.000,44.708 33.000,43.747 C33.000,40.000 36.100,37.022 40.000,37.022 L40.000,37.001 C40.016,37.005 40.024,37.007 40.024,37.007 C40.024,37.007 40.893,36.967 42.000,37.283 C42.000,37.285 42.000,37.288 42.000,37.290 C42.139,37.330 42.275,37.374 42.410,37.423 C42.685,37.518 42.950,37.630 43.207,37.756 C43.475,37.893 43.745,38.054 44.008,38.245 C44.669,38.725 45.266,39.378 46.001,40.272 C46.010,40.284 46.021,40.294 46.031,40.306 C46.647,41.309 47.001,42.484 47.001,43.747 L47.001,44.708 L51.001,44.708 L51.001,62.000 L29.999,62.000 ZM45.001,43.747 C45.001,42.866 44.763,42.047 44.348,41.344 C44.289,41.291 44.239,41.227 44.201,41.153 C43.433,40.047 42.370,39.339 41.149,39.069 C41.037,39.084 40.919,39.077 40.800,39.039 C40.692,39.005 40.596,38.983 40.504,38.969 C40.466,38.965 40.428,38.961 40.390,38.959 C40.357,38.956 40.324,38.953 40.290,38.951 C40.194,38.946 40.098,38.943 40.000,38.943 C37.200,38.943 35.000,41.057 35.000,43.747 L35.000,44.708 L45.001,44.708 C45.001,44.708 45.001,44.708 45.001,43.747 ZM49.001,46.629 L47.001,46.629 L34.000,46.629 L33.000,46.629 L31.000,46.629 L31.000,57.196 L31.000,60.078 L49.001,60.078 L49.001,46.629 ZM40.000,48.550 C42.200,48.550 44.001,50.279 44.001,52.393 C44.001,54.175 42.721,55.684 41.000,56.113 C41.000,56.113 41.000,56.113 41.000,57.196 C41.000,57.773 40.600,58.157 40.000,58.157 C39.400,58.157 39.000,57.773 39.000,57.196 C39.000,57.196 39.000,57.196 39.000,56.113 C37.280,55.684 36.000,54.175 36.000,52.393 C36.000,50.279 37.800,48.550 40.000,48.550 ZM40.000,54.314 C41.100,54.314 42.000,53.450 42.000,52.393 C42.000,51.336 41.100,50.471 40.000,50.471 C38.900,50.471 38.000,51.336 38.000,52.393 C38.000,53.450 38.900,54.314 40.000,54.314 Z"/>
</svg>