<svg 
 xmlns="http://www.w3.org/2000/svg"
 xmlns:xlink="http://www.w3.org/1999/xlink"
 width="47px" height="62px">
<path fill-rule="evenodd"  fill="rgb(0, 0, 62)"
 d="M17.005,2.399 L17.005,2.333 C17.005,1.193 16.076,0.266 14.934,0.266 C8.521,0.266 8.521,0.266 8.521,0.266 C7.379,0.266 6.450,1.193 6.450,2.333 C6.450,2.399 6.450,2.399 6.450,2.399 L3.176,2.399 C1.445,2.399 0.036,3.805 0.036,5.533 C0.036,58.867 0.036,58.867 0.036,58.867 C0.036,60.595 1.445,62.001 3.176,62.001 C43.794,62.001 43.794,62.001 43.794,62.001 C45.525,62.001 46.934,60.595 46.934,58.867 C46.934,5.533 46.934,5.533 46.934,5.533 C46.934,3.805 45.525,2.399 43.794,2.399 L17.005,2.399 ZM8.521,2.266 C14.934,2.266 14.934,2.266 14.934,2.266 C14.971,2.266 15.001,2.296 15.001,2.333 C15.001,14.582 15.001,14.582 15.001,14.582 L12.175,13.172 C12.034,13.102 11.881,13.066 11.727,13.066 C11.574,13.066 11.420,13.102 11.279,13.172 C8.454,14.582 8.454,14.582 8.454,14.582 L8.454,2.333 C8.454,2.296 8.484,2.266 8.521,2.266 ZM44.930,58.867 C44.930,59.492 44.420,60.001 43.794,60.001 C3.176,60.001 3.176,60.001 3.176,60.001 C2.550,60.001 2.041,59.492 2.041,58.867 C2.041,5.533 2.041,5.533 2.041,5.533 C2.041,4.908 2.550,4.400 3.176,4.400 C6.450,4.400 6.450,4.400 6.450,4.400 L6.450,16.200 C6.450,16.546 6.630,16.868 6.925,17.051 C7.221,17.233 7.589,17.249 7.900,17.094 C11.727,15.184 11.727,15.184 11.727,15.184 L15.555,17.094 C15.696,17.165 15.850,17.200 16.003,17.200 C16.186,17.200 16.369,17.150 16.530,17.051 C16.825,16.868 17.005,16.546 17.005,16.200 C17.005,4.400 17.005,4.400 17.005,4.400 L43.794,4.400 C44.420,4.400 44.930,4.908 44.930,5.533 C44.930,58.867 44.930,58.867 44.930,58.867 L44.930,58.867 ZM38.377,38.493 C38.375,38.473 38.371,38.453 38.368,38.433 C38.365,38.420 38.364,38.406 38.361,38.393 C38.358,38.380 38.354,38.366 38.351,38.353 C38.345,38.334 38.341,38.314 38.334,38.294 C38.332,38.286 38.328,38.277 38.325,38.268 C38.317,38.245 38.308,38.222 38.298,38.199 C38.298,38.198 38.297,38.196 38.296,38.194 C34.107,28.788 34.107,28.788 34.107,28.788 L34.107,27.867 L35.243,27.867 C35.796,27.867 36.245,27.419 36.245,26.867 C36.245,26.315 35.796,25.867 35.243,25.867 C24.487,25.867 24.487,25.867 24.487,25.867 L24.487,24.502 C25.728,24.084 26.625,22.911 26.625,21.533 C26.625,19.805 25.216,18.400 23.485,18.400 C21.754,18.400 20.345,19.805 20.345,21.533 C20.345,22.911 21.242,24.084 22.483,24.502 C22.483,25.867 22.483,25.867 22.483,25.867 L11.727,25.867 C11.174,25.867 10.725,26.315 10.725,26.867 C10.725,27.419 11.174,27.867 11.727,27.867 C12.863,27.867 12.863,27.867 12.863,27.867 L12.863,28.788 L8.674,38.194 C8.673,38.196 8.672,38.198 8.672,38.199 C8.662,38.222 8.653,38.245 8.645,38.268 C8.642,38.277 8.639,38.285 8.636,38.294 C8.629,38.314 8.625,38.333 8.620,38.353 C8.616,38.366 8.612,38.380 8.609,38.393 C8.607,38.406 8.605,38.420 8.602,38.433 C8.599,38.453 8.596,38.473 8.593,38.493 C8.592,38.503 8.592,38.512 8.591,38.521 C8.589,38.546 8.588,38.570 8.588,38.594 C8.588,38.597 8.587,38.598 8.587,38.600 C8.587,40.916 10.955,42.800 13.865,42.800 C16.775,42.800 19.143,40.916 19.143,38.600 C19.143,38.598 19.142,38.597 19.142,38.594 C19.142,38.570 19.141,38.546 19.139,38.521 C19.138,38.512 19.138,38.503 19.137,38.493 C19.135,38.473 19.131,38.453 19.128,38.433 C19.125,38.420 19.124,38.406 19.121,38.393 C19.118,38.380 19.114,38.366 19.111,38.353 C19.106,38.334 19.101,38.314 19.094,38.294 C19.092,38.286 19.088,38.277 19.085,38.268 C19.077,38.245 19.068,38.222 19.058,38.199 C19.058,38.198 19.057,38.196 19.056,38.194 C14.867,28.788 14.867,28.788 14.867,28.788 L14.867,27.867 L22.483,27.867 L22.483,36.698 C21.242,37.116 20.345,38.288 20.345,39.667 C20.345,47.200 20.345,47.200 20.345,47.200 L18.141,47.200 C17.587,47.200 17.139,47.648 17.139,48.201 C17.139,48.753 17.587,49.200 18.141,49.200 C28.829,49.200 28.829,49.200 28.829,49.200 C29.383,49.200 29.832,48.753 29.832,48.201 C29.832,47.648 29.383,47.200 28.829,47.200 C26.625,47.200 26.625,47.200 26.625,47.200 L26.625,39.667 C26.625,38.288 25.728,37.116 24.487,36.698 C24.487,27.867 24.487,27.867 24.487,27.867 L32.103,27.867 L32.103,28.788 L27.914,38.194 C27.913,38.196 27.912,38.198 27.912,38.199 C27.902,38.222 27.893,38.245 27.885,38.268 C27.882,38.277 27.878,38.285 27.876,38.294 C27.869,38.314 27.864,38.333 27.859,38.353 C27.856,38.366 27.852,38.380 27.849,38.393 C27.847,38.406 27.845,38.420 27.842,38.433 C27.839,38.453 27.835,38.473 27.833,38.493 C27.832,38.503 27.832,38.512 27.831,38.521 C27.829,38.546 27.828,38.570 27.828,38.594 C27.828,38.597 27.827,38.598 27.827,38.600 C27.827,40.916 30.195,42.800 33.105,42.800 C36.015,42.800 38.383,40.916 38.383,38.600 C38.383,38.598 38.382,38.597 38.382,38.594 C38.382,38.570 38.381,38.546 38.379,38.521 C38.378,38.512 38.378,38.503 38.377,38.493 ZM24.621,21.533 C24.621,22.158 24.111,22.667 23.485,22.667 C22.859,22.667 22.349,22.158 22.349,21.533 C22.349,20.908 22.859,20.400 23.485,20.400 C24.111,20.400 24.621,20.908 24.621,21.533 ZM16.599,37.600 L11.131,37.600 L13.865,31.462 L16.599,37.600 ZM10.962,39.600 C16.768,39.600 16.768,39.600 16.768,39.600 C16.216,40.306 15.108,40.800 13.865,40.800 C12.622,40.800 11.515,40.306 10.962,39.600 ZM22.349,47.200 L22.349,39.667 C22.349,39.042 22.859,38.534 23.485,38.534 C24.111,38.534 24.621,39.042 24.621,39.667 C24.621,47.200 24.621,47.200 24.621,47.200 L22.349,47.200 ZM35.839,37.600 L30.371,37.600 L33.105,31.462 L35.839,37.600 ZM30.202,39.600 C36.008,39.600 36.008,39.600 36.008,39.600 C35.455,40.306 34.348,40.800 33.105,40.800 C31.862,40.800 30.755,40.306 30.202,39.600 Z"/>
</svg>