<svg 
 xmlns="http://www.w3.org/2000/svg"
 xmlns:xlink="http://www.w3.org/1999/xlink"
 width="53px" height="50px">
<path fill-rule="evenodd"  fill="rgb(255, 255, 255)"
 d="M49.433,28.231 C49.070,27.790 48.277,27.161 47.120,26.725 C46.943,26.672 46.943,26.672 46.943,26.672 C45.738,26.124 44.646,25.756 44.326,25.652 C44.074,25.571 43.864,25.482 43.696,25.410 C42.366,24.763 42.216,24.385 42.194,24.326 C42.134,24.187 42.134,24.187 42.134,24.187 L42.185,24.062 C43.173,22.848 43.867,21.434 44.131,20.101 C44.170,20.010 44.170,20.010 44.170,20.010 C44.443,19.668 44.617,19.266 44.687,18.824 C45.001,17.703 45.014,16.879 44.732,16.302 C44.707,16.251 44.707,16.251 44.707,16.251 L44.720,16.194 C45.071,14.745 45.409,12.031 43.723,10.137 C43.454,9.804 42.420,8.678 40.415,8.099 C39.437,7.768 39.437,7.768 39.437,7.768 C37.835,7.281 36.822,7.164 36.653,7.161 C36.547,7.161 36.451,7.174 36.312,7.204 C36.191,7.228 36.191,7.228 36.191,7.228 C36.121,7.217 36.048,7.211 35.965,7.211 C35.429,7.211 34.849,7.443 34.849,7.443 C34.284,7.678 31.414,8.984 30.504,11.759 C30.353,12.153 30.044,13.352 30.443,15.976 C30.453,16.041 30.453,16.041 30.453,16.041 L30.412,16.096 C30.003,16.639 29.968,17.521 30.309,18.706 C30.398,19.230 30.571,19.649 30.826,19.965 C30.869,20.054 30.869,20.054 30.869,20.054 C31.121,21.427 31.739,22.781 32.659,23.971 C32.732,24.067 32.732,24.067 32.732,24.067 L32.664,24.163 C32.624,24.222 32.596,24.282 32.586,24.326 C32.445,24.723 31.366,25.352 29.693,26.013 C29.319,25.879 29.059,25.795 28.967,25.765 C28.629,25.654 28.346,25.534 28.116,25.435 C26.347,24.573 26.114,24.071 26.079,23.956 C25.986,23.751 25.986,23.751 25.986,23.751 L26.068,23.562 C27.396,21.930 28.327,20.030 28.685,18.231 C28.740,18.108 28.740,18.108 28.740,18.108 C29.107,17.647 29.342,17.109 29.430,16.522 C29.852,15.022 29.875,13.918 29.494,13.148 C29.453,13.067 29.453,13.067 29.453,13.067 L29.475,12.979 C29.947,11.033 30.400,7.392 28.137,4.855 C27.778,4.411 26.399,2.901 23.705,2.123 C22.389,1.677 22.389,1.677 22.389,1.677 C20.191,1.011 18.827,0.865 18.650,0.863 C18.506,0.863 18.381,0.879 18.198,0.922 C18.021,0.950 18.021,0.950 18.021,0.950 C17.292,0.834 16.396,1.176 16.234,1.238 C15.475,1.552 11.628,3.308 10.408,7.029 C10.204,7.556 9.792,9.164 10.328,12.685 C10.344,12.791 10.344,12.791 10.344,12.791 L10.277,12.879 C9.731,13.598 9.690,14.775 10.147,16.363 C10.264,17.062 10.496,17.621 10.840,18.048 C10.900,18.173 10.900,18.173 10.900,18.173 C11.233,20.017 12.064,21.837 13.302,23.440 C13.418,23.589 13.418,23.589 13.418,23.589 L13.308,23.747 C13.254,23.825 13.218,23.905 13.209,23.954 C12.902,24.818 9.478,26.327 6.478,27.230 C4.318,28.038 3.370,29.346 3.364,29.354 C0.389,33.711 0.013,43.065 -0.000,43.466 C0.046,45.899 1.166,46.394 1.381,46.465 C1.571,46.547 1.571,46.547 1.571,46.547 C8.151,49.380 17.763,49.931 18.838,49.986 C19.174,49.996 19.174,49.996 19.174,49.996 C19.495,49.996 19.820,49.978 20.126,49.962 C20.153,49.961 20.153,49.961 20.153,49.961 L20.252,49.968 C20.332,49.987 20.397,49.998 20.464,49.998 C20.465,49.998 20.465,49.998 20.465,49.998 L20.510,49.996 C20.945,49.974 31.264,49.395 37.704,46.544 C38.055,46.452 39.191,45.971 39.293,43.606 C41.589,43.410 47.082,42.785 50.813,41.135 C51.089,41.064 51.994,40.685 52.025,38.764 C51.982,38.025 51.623,31.424 49.509,28.320 L49.433,28.231 ZM14.464,24.763 L14.642,24.928 C16.217,26.392 17.962,27.197 19.551,27.197 C21.219,27.197 22.942,26.482 24.532,25.130 C24.667,25.018 24.667,25.018 24.667,25.018 L25.016,25.187 C25.312,25.453 25.844,25.836 26.083,25.951 C26.411,26.109 26.411,26.109 26.411,26.109 L26.376,26.142 L26.502,26.217 C26.803,26.392 27.123,26.563 27.488,26.742 C27.858,26.904 28.176,27.026 28.512,27.136 C28.578,27.158 30.150,27.659 31.941,28.477 C32.261,28.575 32.261,28.575 32.261,28.575 C33.964,29.215 34.683,30.116 34.710,30.147 C37.352,34.017 37.796,42.464 37.840,43.409 C37.819,44.728 37.438,45.071 37.339,45.137 C31.417,47.752 22.471,48.432 20.740,48.541 C20.691,48.544 20.691,48.544 20.691,48.544 L20.642,48.529 C20.584,48.512 20.524,48.504 20.450,48.504 C20.448,48.504 20.448,48.504 20.448,48.504 L20.387,48.506 C19.914,48.538 19.522,48.554 19.157,48.554 C18.870,48.554 18.870,48.554 18.870,48.554 C17.792,48.490 8.145,47.866 1.971,45.156 C1.847,45.105 1.482,44.689 1.455,43.475 C1.456,43.385 1.773,34.267 4.547,30.203 C4.682,30.035 5.436,29.168 6.943,28.600 C8.267,28.199 11.544,27.127 13.337,25.846 C13.412,25.801 13.486,25.726 13.566,25.646 C13.697,25.506 13.970,25.217 14.285,24.928 L14.464,24.763 ZM32.489,27.139 C32.086,26.955 31.664,26.775 31.227,26.598 C31.844,26.313 32.349,26.034 32.723,25.764 C32.784,25.729 32.844,25.669 32.901,25.610 C33.036,25.466 33.219,25.274 33.432,25.077 C33.547,24.973 33.547,24.973 33.547,24.973 L33.656,25.079 C34.835,26.172 36.138,26.771 37.322,26.771 C38.571,26.771 39.858,26.238 41.043,25.230 C41.127,25.159 41.127,25.159 41.127,25.159 L41.366,25.274 C41.585,25.474 41.982,25.756 42.159,25.843 C42.366,25.940 42.366,25.940 42.366,25.940 L42.340,25.965 L42.470,26.040 C42.696,26.172 42.937,26.299 43.207,26.430 C43.484,26.551 43.720,26.642 43.970,26.725 C44.018,26.741 45.177,27.107 46.516,27.720 C46.752,27.791 46.752,27.791 46.752,27.791 C47.972,28.252 48.503,28.884 48.554,28.949 C50.525,31.832 50.843,38.082 50.872,38.779 C50.858,39.745 50.586,39.992 50.519,40.036 C46.810,41.674 41.484,42.289 39.245,42.483 C39.043,39.614 38.325,32.858 35.930,29.344 C35.829,29.224 35.829,29.224 35.829,29.224 C35.343,28.634 34.280,27.794 32.734,27.209 L32.489,27.139 ZM31.388,16.721 C31.576,16.585 31.667,16.376 31.632,16.159 C31.187,13.520 31.476,12.413 31.576,12.133 C32.352,9.783 34.795,8.687 35.275,8.493 C35.372,8.456 35.558,8.401 35.756,8.368 C35.815,8.354 35.815,8.354 35.815,8.354 L36.184,8.335 L36.187,8.360 L36.298,8.350 C36.380,8.344 36.460,8.331 36.516,8.319 C36.640,8.292 36.640,8.292 36.640,8.292 C36.719,8.293 37.684,8.417 39.082,8.840 C40.068,9.174 40.068,9.174 40.068,9.174 C41.859,9.695 42.688,10.670 42.841,10.867 C44.280,12.478 43.894,14.902 43.535,16.204 C43.495,16.364 43.519,16.529 43.612,16.664 C43.692,16.765 43.692,16.765 43.692,16.765 C43.793,16.899 43.885,17.431 43.573,18.577 C43.515,18.925 43.384,19.204 43.197,19.390 C43.121,19.469 43.070,19.571 43.051,19.688 C42.566,22.501 40.013,25.645 37.323,25.645 C35.039,25.645 32.435,22.751 31.966,19.688 C31.947,19.572 31.897,19.470 31.814,19.377 C31.623,19.182 31.500,18.898 31.423,18.468 C31.198,17.672 31.173,17.028 31.346,16.769 L31.388,16.721 ZM11.533,13.667 C11.774,13.496 11.891,13.227 11.846,12.949 C11.242,9.372 11.637,7.884 11.772,7.510 C12.821,4.332 16.128,2.847 16.777,2.584 C16.913,2.532 17.165,2.457 17.432,2.414 C17.504,2.398 17.504,2.398 17.504,2.398 L18.048,2.369 L18.050,2.402 L18.167,2.391 C18.276,2.381 18.382,2.364 18.507,2.340 C18.631,2.311 18.631,2.311 18.631,2.311 C18.732,2.313 20.009,2.471 21.934,3.053 C23.258,3.503 23.258,3.503 23.258,3.503 C25.678,4.208 26.805,5.529 27.012,5.793 C28.958,7.973 28.438,11.252 27.956,13.015 C27.899,13.218 27.934,13.429 28.052,13.601 C28.159,13.738 28.159,13.738 28.159,13.738 C28.336,13.972 28.403,14.757 28.007,16.209 C27.927,16.683 27.748,17.068 27.487,17.323 C27.391,17.424 27.329,17.555 27.302,17.705 C26.643,21.508 23.188,25.760 19.550,25.760 C16.458,25.760 12.932,21.846 12.296,17.707 C12.274,17.558 12.212,17.423 12.103,17.306 C11.837,17.036 11.670,16.647 11.566,16.068 C11.260,14.979 11.228,14.103 11.471,13.738 L11.533,13.667 Z"/>
</svg>