<svg 
 xmlns="http://www.w3.org/2000/svg"
 xmlns:xlink="http://www.w3.org/1999/xlink"
 width="40px" height="50px">
<path fill-rule="evenodd"  fill="rgb(0, 0, 62)"
 d="M36.558,28.363 C36.076,27.768 35.021,26.927 33.487,26.346 C33.242,26.273 33.242,26.273 33.242,26.273 C31.556,25.500 30.042,24.997 29.746,24.901 C29.408,24.790 29.128,24.671 28.900,24.571 C27.141,23.710 26.912,23.206 26.877,23.092 C26.786,22.887 26.786,22.887 26.786,22.887 L26.867,22.698 C28.184,21.069 29.110,19.168 29.466,17.368 C29.521,17.242 29.521,17.242 29.521,17.242 C29.883,16.785 30.116,16.249 30.206,15.657 C30.622,14.155 30.644,13.054 30.270,12.285 C30.229,12.201 30.229,12.201 30.229,12.201 L30.250,12.112 C30.718,10.168 31.168,6.526 28.922,3.989 C28.566,3.546 27.198,2.035 24.521,1.256 C23.215,0.812 23.215,0.812 23.215,0.812 C21.032,0.145 19.679,0.001 19.501,-0.001 C19.359,-0.001 19.234,0.013 19.053,0.057 C18.877,0.086 18.877,0.086 18.877,0.086 C18.187,-0.025 17.333,0.285 17.103,0.374 C16.348,0.687 12.529,2.443 11.319,6.166 C11.118,6.692 10.708,8.301 11.240,11.822 C11.255,11.930 11.255,11.930 11.255,11.930 L11.189,12.017 C10.647,12.738 10.605,13.913 11.060,15.500 C11.176,16.200 11.405,16.758 11.747,17.186 C11.808,17.313 11.808,17.313 11.808,17.313 C12.139,19.154 12.964,20.976 14.193,22.578 C14.306,22.730 14.306,22.730 14.306,22.730 L14.198,22.885 C14.145,22.964 14.109,23.045 14.101,23.094 C13.795,23.959 10.397,25.466 7.417,26.372 C5.272,27.179 4.330,28.485 4.326,28.495 C1.370,32.852 0.997,42.205 0.981,42.608 C1.028,45.041 2.140,45.536 2.354,45.607 C2.541,45.690 2.541,45.690 2.541,45.690 C9.074,48.523 18.616,49.075 19.684,49.129 C20.018,49.139 20.018,49.139 20.018,49.139 C20.338,49.139 20.660,49.121 20.963,49.106 C20.989,49.104 20.989,49.104 20.989,49.104 L21.087,49.111 C21.168,49.131 21.229,49.139 21.296,49.139 C21.298,49.139 21.298,49.139 21.298,49.139 L21.342,49.139 C21.777,49.117 32.021,48.539 38.415,45.685 C38.879,45.565 39.962,45.015 40.002,42.540 C39.986,42.140 39.559,32.767 36.661,28.481 L36.558,28.363 ZM15.349,23.896 L15.525,24.062 C17.091,25.528 18.822,26.335 20.400,26.335 C22.057,26.335 23.767,25.619 25.348,24.266 C25.479,24.154 25.479,24.154 25.479,24.154 L25.825,24.322 C26.117,24.590 26.644,24.970 26.881,25.086 C27.209,25.244 27.209,25.244 27.209,25.244 L27.173,25.279 L27.300,25.354 C27.597,25.529 27.916,25.699 28.279,25.879 C28.648,26.040 28.963,26.162 29.295,26.272 C29.361,26.295 30.921,26.795 32.702,27.614 C33.019,27.711 33.019,27.711 33.019,27.711 C34.709,28.352 35.422,29.254 35.448,29.285 C38.070,33.153 38.513,41.602 38.555,42.547 C38.535,43.870 38.158,44.209 38.056,44.276 C32.179,46.892 23.297,47.570 21.579,47.679 C21.531,47.682 21.531,47.682 21.531,47.682 L21.481,47.668 C21.425,47.649 21.364,47.642 21.291,47.642 C21.290,47.642 21.290,47.642 21.290,47.642 L21.231,47.644 C20.760,47.676 20.371,47.692 20.008,47.692 C19.725,47.692 19.725,47.692 19.725,47.692 C18.652,47.630 9.078,47.004 2.948,44.293 C2.823,44.243 2.460,43.828 2.435,42.614 C2.438,42.525 2.750,33.405 5.503,29.341 C5.638,29.171 6.386,28.305 7.883,27.737 C9.197,27.334 12.450,26.263 14.229,24.982 C14.310,24.936 14.391,24.851 14.457,24.782 C14.587,24.641 14.858,24.352 15.171,24.061 L15.349,23.896 ZM12.439,12.802 C12.678,12.629 12.794,12.359 12.749,12.082 C12.152,8.506 12.542,7.016 12.677,6.641 C13.718,3.465 17.000,1.978 17.645,1.715 C17.779,1.663 18.030,1.587 18.295,1.545 C18.362,1.530 18.362,1.530 18.362,1.530 L18.906,1.500 L18.908,1.532 L19.025,1.521 C19.133,1.511 19.236,1.495 19.361,1.469 C19.486,1.441 19.486,1.441 19.486,1.441 C19.586,1.442 20.853,1.600 22.763,2.181 C24.080,2.631 24.080,2.631 24.080,2.631 C26.482,3.336 27.601,4.659 27.806,4.922 C29.736,7.099 29.221,10.381 28.742,12.144 C28.687,12.347 28.722,12.558 28.837,12.731 C28.944,12.869 28.944,12.869 28.944,12.869 C29.120,13.102 29.187,13.885 28.792,15.339 C28.713,15.813 28.536,16.198 28.274,16.454 C28.183,16.554 28.116,16.690 28.090,16.835 C27.439,20.638 24.010,24.893 20.398,24.893 C17.327,24.893 13.826,20.977 13.196,16.837 C13.174,16.687 13.108,16.552 13.002,16.436 C12.740,16.167 12.573,15.777 12.470,15.199 C12.169,14.112 12.137,13.236 12.378,12.871 L12.439,12.802 Z"/>
</svg>