<?xml version="1.0" encoding="UTF-8" standalone="no"?>
<!-- Created with Inkscape (http://www.inkscape.org/) -->

<svg
   xmlns:dc="http://purl.org/dc/elements/1.1/"
   xmlns:cc="http://creativecommons.org/ns#"
   xmlns:rdf="http://www.w3.org/1999/02/22-rdf-syntax-ns#"
   xmlns:svg="http://www.w3.org/2000/svg"
   xmlns="http://www.w3.org/2000/svg"
   xmlns:sodipodi="http://sodipodi.sourceforge.net/DTD/sodipodi-0.dtd"
   xmlns:inkscape="http://www.inkscape.org/namespaces/inkscape"
   id="svg2"
   version="1.1"
   sodipodi:docname="logo-art6.svg"
   inkscape:version="0.92.1 r15371"
   width="80"
   height="15">
  <metadata
     id="metadata8">
    <rdf:RDF>
      <cc:Work
         rdf:about="">
        <dc:format>image/svg+xml</dc:format>
        <dc:type
           rdf:resource="http://purl.org/dc/dcmitype/StillImage" />
        <dc:title />
      </cc:Work>
    </rdf:RDF>
  </metadata>
  <defs
     id="defs6">
    <clipPath
       clipPathUnits="userSpaceOnUse"
       id="clipPath16">
      <path
         d="M 0,841.89 H 595.28 V 0 H 0 Z"
         id="path18"
         inkscape:connector-curvature="0" />
    </clipPath>
  </defs>
  <sodipodi:namedview
     bordercolor="#666666"
     borderopacity="1"
     objecttolerance="10"
     gridtolerance="10"
     guidetolerance="10"
     id="namedview4"
     inkscape:window-maximized="1"
     inkscape:current-layer="g12"
     showgrid="false"
     borderlayer="false"
     inkscape:showpageshadow="true"
     inkscape:zoom="9.44"
     inkscape:cx="34.296595"
     inkscape:cy="-4.8570028"
     inkscape:window-width="1920"
     inkscape:window-height="1057"
     inkscape:window-x="-8"
     inkscape:window-y="-8" />
  <g
     id="g10"
     inkscape:groupmode="layer"
     inkscape:label="Логотип арт 6 CMYK"
     transform="matrix(1.25,0,0,-1.25,2.1799094e-6,967.36251)">
    <g
       id="g12">
      <g
         id="g14"
         clip-path="url(#clipPath16)"
         transform="matrix(0.29640492,0,0,0.29149986,-56.887297,554.21825)"
         style="fill:#4f4f5b;fill-opacity:1">
        <g
           id="g20"
           transform="translate(219.0377,753.4467)"
           style="fill:#4f4f5b;fill-opacity:1">
          <path
             d="M 0,0 H 18.879 L 10.177,-40.877 H 1.984 L 8.986,-7.966 1.673,-7.994 h -1.758 c -4.101,0 -6.407,-0.17 -6.917,-0.51 -2.57,-0.662 -4.932,-2.07 -7.087,-4.224 -2.362,-2.589 -3.817,-5.169 -4.365,-7.739 -0.662,-3.175 -0.057,-6.095 1.814,-8.759 1.323,-1.569 2.542,-2.514 3.657,-2.835 1.077,-0.605 3.071,-0.907 5.981,-0.907 h 5.698 l -1.701,-7.909 h -6.832 c -5.045,0 -9.042,1.332 -11.991,3.997 -2.097,2.003 -3.401,3.817 -3.911,5.443 -1.399,3.363 -1.73,6.803 -0.993,10.318 l 0.255,1.191 c 1.059,4.913 3.865,9.42 8.42,13.521 2.683,2.173 4.8,3.544 6.349,4.111 1.134,0.567 2.655,1.105 4.564,1.616 C -5.443,-0.227 -3.062,0 0,0"
             style="fill:#4f4f5b;fill-opacity:1;fill-rule:nonzero;stroke:none"
             id="path22"
             inkscape:connector-curvature="0" />
        </g>
        <g
           id="g24"
           transform="translate(239.8846,753.4401)"
           style="fill:#4f4f5b;fill-opacity:1">
          <path
             d="m 0,0 h 12.065 c 2.128,0 3.661,-0.638 4.599,-1.915 0.426,-0.504 0.695,-0.991 0.808,-1.46 0.261,-0.938 0.3,-1.854 0.117,-2.749 l -0.117,-0.534 c -0.295,-1.373 -1.177,-2.714 -2.645,-4.026 -0.912,-0.73 -1.707,-1.199 -2.384,-1.407 1.225,-1.685 1.542,-3.913 0.951,-6.684 H 9.603 l 0.065,0.287 c 0.434,2.049 -0.052,3.678 -1.46,4.886 -0.799,0.668 -1.963,1.003 -3.491,1.003 h -7.401 l 0.769,3.622 h 12.299 c 1.347,0 2.398,0.664 3.153,1.993 0.113,0.269 0.2,0.495 0.261,0.678 0.156,0.738 -0.013,1.407 -0.508,2.006 -0.443,0.417 -0.96,0.626 -1.551,0.626 0,0.034 -0.182,0.052 -0.547,0.052 H -0.782 Z"
             style="fill:#4f4f5b;fill-opacity:1;fill-rule:nonzero;stroke:none"
             id="path26"
             inkscape:connector-curvature="0" />
        </g>
        <g
           id="g28"
           transform="translate(260.2051,753.4336)"
           style="fill:#4f4f5b;fill-opacity:1">
          <path
             d="M 0,0 H 18.892 L 18.124,-3.635 H 10.58 L 7.362,-18.762 H 3.557 l 3.218,15.127 h -7.544 z"
             style="fill:#4f4f5b;fill-opacity:1;fill-rule:nonzero;stroke:none"
             id="path30"
             inkscape:connector-curvature="0" />
        </g>
        <g
           id="g32"
           transform="translate(253.2909,718.0549)"
           style="fill:#4f4f5b;fill-opacity:1">
          <path
             d="M 0,0 C 0.626,0 1.102,0.108 1.427,0.325 1.752,0.542 1.963,0.867 2.06,1.301 2.18,1.783 2.132,2.108 1.915,2.276 1.698,2.445 1.312,2.529 0.759,2.529 H -9.467 c -1.133,0 -1.784,-0.397 -1.952,-1.192 -0.12,-0.506 -0.072,-0.855 0.145,-1.048 C -11.057,0.096 -10.6,0 -9.901,0 Z M 10.443,-1.771 C 10.154,-3.023 9.527,-3.957 8.564,-4.571 7.6,-5.185 6.432,-5.493 5.059,-5.493 h -22.548 c -1.326,0 -2.331,0.35 -3.018,1.048 -0.686,0.699 -0.873,1.699 -0.56,3 l 2.927,12.647 c 0.121,0.578 0.367,1.108 0.741,1.59 0.373,0.481 0.825,0.897 1.355,1.246 0.53,0.349 1.12,0.62 1.77,0.813 0.651,0.193 1.313,0.29 1.988,0.29 h 24.789 c 0.457,0 0.842,-0.157 1.156,-0.47 0.313,-0.314 0.421,-0.675 0.325,-1.084 L 13.406,11.093 C 13.357,10.9 13.261,10.72 13.117,10.551 12.972,10.383 12.797,10.232 12.593,10.1 12.388,9.967 12.171,9.859 11.942,9.774 11.713,9.69 11.491,9.648 11.274,9.648 H -7.697 C -8.396,9.648 -8.883,9.576 -9.161,9.431 -9.438,9.287 -9.636,8.937 -9.756,8.383 -9.853,8.022 -9.745,7.757 -9.431,7.588 -9.118,7.419 -8.805,7.323 -8.492,7.299 H 7.48 c 1.035,0 1.861,-0.108 2.475,-0.325 0.614,-0.217 1.066,-0.506 1.355,-0.867 0.289,-0.362 0.439,-0.79 0.452,-1.283 0.012,-0.494 -0.043,-1.03 -0.163,-1.608 z"
             style="fill:#4f4f5b;fill-opacity:1;fill-rule:nonzero;stroke:none"
             id="path34"
             inkscape:connector-curvature="0" />
        </g>
        <g
           id="g36"
           transform="translate(290.1122,738.3601)"
           style="fill:#4f4f5b;fill-opacity:1">
          <path
             d="m 0,0 c -1.442,0 -3.399,0.193 -4.798,1.764 -1.419,1.593 -1.527,3.894 -1.527,5.55 0,2.152 0.193,4.368 1.463,5.852 1.505,1.765 3.851,1.894 4.926,1.894 H 6.109 V 12.8 H 1.398 C -0.28,12.8 -1.7,12.693 -2.56,11.402 -3.012,10.735 -3.399,9.595 -3.399,7.358 c 0,-2.259 0.408,-3.185 0.71,-3.657 0.774,-1.184 2.151,-1.442 3.937,-1.442 H 6.347 V 0 Z"
             style="fill:#4f4f5b;fill-opacity:1;fill-rule:nonzero;stroke:none"
             id="path38"
             inkscape:connector-curvature="0" />
        </g>
        <g
           id="g40"
           transform="translate(301.8543,741.738)"
           style="fill:#4f4f5b;fill-opacity:1">
          <path
             d="M 0,0 C 0.882,-1.141 2.13,-1.291 3.829,-1.291 5.098,-1.291 6.712,-1.248 7.68,0 8.24,0.71 8.627,1.936 8.627,4.152 8.627,6.411 8.261,7.594 7.68,8.325 6.712,9.552 5.077,9.594 3.829,9.594 2.517,9.594 0.989,9.552 0,8.325 -0.603,7.573 -0.968,6.454 -0.968,4.152 -0.968,2 -0.624,0.796 0,0 m 9.853,10.261 c 1.528,-1.506 1.7,-4.13 1.7,-6.109 0,-1.614 -0.065,-4.496 -1.7,-6.11 C 8.24,-3.55 5.55,-3.55 3.851,-3.55 c -1.786,0 -4.346,0 -6.003,1.592 -1.742,1.678 -1.742,4.41 -1.742,6.11 0,2.044 0.108,4.56 1.742,6.109 1.679,1.592 4.174,1.592 6.003,1.592 1.742,0 4.367,0 6.002,-1.592"
             style="fill:#4f4f5b;fill-opacity:1;fill-rule:nonzero;stroke:none"
             id="path42"
             inkscape:connector-curvature="0" />
        </g>
        <g
           id="g44"
           transform="translate(315.3382,740.6189)"
           style="fill:#4f4f5b;fill-opacity:1">
          <path
             d="m 0,0 h 6.927 c 0.259,0 1.334,0.021 1.786,0.28 0.689,0.387 0.731,1.226 0.731,1.828 0,0.474 -0.021,1.249 -0.537,1.7 C 8.777,3.916 8.369,4.217 7.186,4.217 H 0.301 V 6.476 H 6.82 c 0.968,0 1.657,0.129 1.979,0.473 0.388,0.409 0.366,1.119 0.366,1.571 0,0.559 0.022,1.269 -0.495,1.699 -0.366,0.301 -0.86,0.322 -1.312,0.322 H 0.086 v 2.26 h 7.917 c 0.989,0 2.216,0.021 3.163,-0.926 0.839,-0.86 0.924,-2.022 0.924,-3.14 0,-0.969 -0.063,-1.894 -0.859,-2.647 C 10.886,5.766 10.434,5.529 9.961,5.422 V 5.335 c 0.818,-0.042 1.592,-0.43 1.979,-1.118 0.28,-0.473 0.431,-1.227 0.431,-2.453 0,-1.076 -0.087,-2.625 -1.356,-3.42 C 10.154,-2.195 8.821,-2.259 7.788,-2.259 H 0 Z"
             style="fill:#4f4f5b;fill-opacity:1;fill-rule:nonzero;stroke:none"
             id="path46"
             inkscape:connector-curvature="0" />
        </g>
        <g
           id="g48"
           transform="translate(332.5236,740.6189)"
           style="fill:#4f4f5b;fill-opacity:1">
          <path
             d="M 0,0 H 9.143 L 4.925,9.767 C 4.862,9.897 4.754,10.241 4.581,10.241 4.41,10.241 4.259,9.897 4.216,9.767 Z m 2.172,11.38 c 0.387,0.861 0.882,1.592 2.409,1.592 1.334,0 1.937,-0.515 2.41,-1.592 L 12.046,0 h 1.271 V -2.259 H -4.175 V 0 h 1.271 z"
             style="fill:#4f4f5b;fill-opacity:1;fill-rule:nonzero;stroke:none"
             id="path50"
             inkscape:connector-curvature="0" />
        </g>
        <g
           id="g52"
           transform="translate(351.0842,744.1903)"
           style="fill:#4f4f5b;fill-opacity:1">
          <path
             d="M 0,0 H 5.788 L 3.336,6.132 C 3.249,6.347 3.098,6.755 2.904,6.755 2.711,6.755 2.56,6.347 2.475,6.132 Z m 0.431,7.702 c 0.538,1.269 1.119,1.699 2.473,1.699 1.292,0 1.937,-0.43 2.475,-1.699 L 11.058,-5.83 h -2.99 l -1.549,3.808 h -7.25 L -2.259,-5.83 h -2.99 z"
             style="fill:#4f4f5b;fill-opacity:1;fill-rule:nonzero;stroke:none"
             id="path54"
             inkscape:connector-curvature="0" />
        </g>
        <g
           id="g56"
           transform="translate(376.2944,738.3601)"
           style="fill:#4f4f5b;fill-opacity:1">
          <path
             d="m 0,0 h -2.839 v 6.626 h -7.832 V 0 h -2.839 v 15.06 h 2.839 V 8.885 h 7.832 V 15.06 H 0 Z"
             style="fill:#4f4f5b;fill-opacity:1;fill-rule:nonzero;stroke:none"
             id="path58"
             inkscape:connector-curvature="0" />
        </g>
        <g
           id="g60"
           transform="translate(390.3596,738.3601)"
           style="fill:#4f4f5b;fill-opacity:1">
          <path
             d="m 0,0 0.086,11.445 c 0,0.237 -0.021,0.495 -0.215,0.495 -0.172,0 -0.344,-0.345 -0.559,-0.689 L -6.884,1.248 c -0.41,-0.667 -0.86,-1.42 -2.388,-1.42 -2.173,0 -2.216,1.721 -2.216,2.581 V 15.06 h 2.84 L -8.713,3.829 c 0,-0.344 -0.021,-0.688 0.258,-0.688 0.173,0 0.279,0.258 0.41,0.473 l 6.065,9.94 c 0.819,1.333 1.485,1.677 2.518,1.677 2.259,0 2.301,-1.957 2.301,-2.71 L 2.839,0 Z"
             style="fill:#4f4f5b;fill-opacity:1;fill-rule:nonzero;stroke:none"
             id="path62"
             inkscape:connector-curvature="0" />
        </g>
        <g
           id="g64"
           transform="translate(398.0561,738.3601)"
           style="fill:#4f4f5b;fill-opacity:1">
          <path
             d="m 0,0 c -0.646,0 -1.226,0 -1.721,0.473 -0.516,0.495 -0.558,1.184 -0.558,1.764 v 10.671 c 0,0.602 0.193,1.205 0.515,1.57 0.495,0.538 1.226,0.582 1.807,0.582 h 9.66 V 12.8 H 1.57 C 1.313,12.8 1.012,12.779 0.796,12.585 0.56,12.37 0.56,12.069 0.56,11.854 V 8.82 H 9.487 V 6.561 H 0.56 V 3.034 C 0.56,2.797 0.646,2.56 0.776,2.452 0.947,2.28 1.291,2.259 1.743,2.259 H 9.789 V 0 Z"
             style="fill:#4f4f5b;fill-opacity:1;fill-rule:nonzero;stroke:none"
             id="path66"
             inkscape:connector-curvature="0" />
        </g>
        <g
           id="g68"
           transform="translate(284.6163,712.5972)"
           style="fill:#4f4f5b;fill-opacity:1">
          <path
             d="m 0,0 c -1.442,0 -3.399,0.193 -4.798,1.764 -1.419,1.593 -1.527,3.894 -1.527,5.55 0,2.152 0.193,4.368 1.463,5.852 1.505,1.765 3.851,1.894 4.926,1.894 H 6.109 V 12.8 H 1.398 C -0.28,12.8 -1.7,12.693 -2.56,11.402 -3.012,10.735 -3.399,9.595 -3.399,7.358 c 0,-2.259 0.408,-3.185 0.71,-3.657 0.774,-1.184 2.151,-1.442 3.937,-1.442 H 6.347 V 0 Z"
             style="fill:#4f4f5b;fill-opacity:1;fill-rule:nonzero;stroke:none"
             id="path70"
             inkscape:connector-curvature="0" />
        </g>
        <g
           id="g72"
           transform="translate(296.2077,718.4274)"
           style="fill:#4f4f5b;fill-opacity:1">
          <path
             d="M 0,0 H 5.787 L 3.334,6.132 C 3.249,6.347 3.098,6.755 2.904,6.755 2.71,6.755 2.56,6.347 2.474,6.132 Z m 0.43,7.702 c 0.538,1.269 1.119,1.699 2.474,1.699 1.291,0 1.936,-0.43 2.474,-1.699 L 11.058,-5.83 H 8.068 L 6.519,-2.022 H -0.732 L -2.259,-5.83 H -5.25 Z"
             style="fill:#4f4f5b;fill-opacity:1;fill-rule:nonzero;stroke:none"
             id="path74"
             inkscape:connector-curvature="0" />
        </g>
        <g
           id="g76"
           transform="translate(312.8332,731.0769)"
           style="fill:#4f4f5b;fill-opacity:1">
          <path
             d="m 0,0 c 0.108,-0.366 0.344,-0.71 0.603,-0.946 0.473,-0.409 1.075,-0.452 1.57,-0.452 0.516,0 1.118,0.043 1.592,0.452 C 4.024,-0.71 4.26,-0.366 4.368,0 H 6.411 C 6.196,-0.753 5.68,-1.721 4.948,-2.259 4.195,-2.818 3.098,-2.99 2.173,-2.99 c -1.119,0 -2.109,0.258 -2.754,0.731 -0.732,0.538 -1.247,1.506 -1.463,2.259 z m 6.562,-18.48 0.086,11.445 c 0,0.237 -0.021,0.495 -0.215,0.495 -0.173,0 -0.344,-0.344 -0.56,-0.689 l -6.196,-10.003 c -0.408,-0.667 -0.86,-1.42 -2.388,-1.42 -2.172,0 -2.215,1.721 -2.215,2.582 v 12.65 h 2.839 l -0.064,-11.231 c 0,-0.344 -0.021,-0.688 0.258,-0.688 0.172,0 0.28,0.259 0.409,0.474 l 6.067,9.939 c 0.817,1.333 1.484,1.677 2.516,1.677 2.259,0 2.302,-1.957 2.302,-2.71 V -18.48 Z"
             style="fill:#4f4f5b;fill-opacity:1;fill-rule:nonzero;stroke:none"
             id="path78"
             inkscape:connector-curvature="0" />
        </g>
        <g
           id="g80"
           transform="translate(329.1786,712.5972)"
           style="fill:#4f4f5b;fill-opacity:1">
          <path
             d="m 0,0 v 12.8 h -5.874 v 2.26 H 8.734 V 12.8 H 2.839 V 0 Z"
             style="fill:#4f4f5b;fill-opacity:1;fill-rule:nonzero;stroke:none"
             id="path82"
             inkscape:connector-curvature="0" />
        </g>
        <g
           id="g84"
           transform="translate(340.5774,718.4274)"
           style="fill:#4f4f5b;fill-opacity:1">
          <path
             d="M 0,0 H 5.788 L 3.336,6.132 C 3.249,6.347 3.098,6.755 2.904,6.755 2.711,6.755 2.56,6.347 2.475,6.132 Z m 0.431,7.702 c 0.538,1.269 1.119,1.699 2.473,1.699 1.292,0 1.937,-0.43 2.475,-1.699 L 11.059,-5.83 H 8.068 l -1.549,3.808 h -7.25 L -2.259,-5.83 h -2.99 z"
             style="fill:#4f4f5b;fill-opacity:1;fill-rule:nonzero;stroke:none"
             id="path86"
             inkscape:connector-curvature="0" />
        </g>
      </g>
    </g>
  </g>
</svg>
