<svg 
 xmlns="http://www.w3.org/2000/svg"
 xmlns:xlink="http://www.w3.org/1999/xlink"
 width="151px" height="88px">
<path fill-rule="evenodd"  fill="rgb(60, 60, 70)"
 d="M143.938,49.104 L143.894,49.061 L129.758,49.061 L129.880,75.996 L129.882,75.997 L122.300,86.993 L122.300,68.789 L101.594,49.095 L101.511,49.173 L101.513,49.061 L101.472,49.061 L101.514,49.022 L101.514,49.018 L101.513,49.018 L101.514,49.018 L101.819,27.593 L101.821,27.591 L101.875,8.941 L92.992,-0.001 L110.757,-0.001 L110.757,17.791 L110.757,17.790 L110.757,40.416 L108.204,42.835 L123.446,28.738 L139.281,44.418 L136.876,41.998 L143.938,34.892 L151.000,41.998 L143.938,49.104 ZM93.824,86.352 L83.568,86.352 L73.738,72.702 L73.738,86.352 L65.609,86.352 L65.609,56.057 L73.738,56.057 L73.738,69.802 L83.237,56.057 L92.831,56.057 L81.725,70.800 L93.824,86.352 ZM48.669,63.513 C44.445,63.513 41.020,66.962 41.020,71.216 C41.020,75.469 44.445,78.918 48.669,78.918 C51.025,78.918 53.130,77.845 54.534,76.159 L62.065,79.700 C59.263,84.176 54.311,87.149 48.669,87.149 C39.929,87.149 32.845,80.015 32.845,71.216 C32.845,62.416 39.929,55.282 48.669,55.282 C54.480,55.282 59.559,58.437 62.310,63.138 L54.907,66.760 C53.521,64.796 51.244,63.513 48.669,63.513 ZM35.777,41.265 C35.986,42.552 36.546,43.576 37.455,44.336 C38.365,45.096 39.525,45.476 40.937,45.476 C42.624,45.476 44.074,44.882 45.287,43.695 L49.091,45.492 C48.143,46.847 47.007,47.848 45.684,48.497 C44.361,49.146 42.790,49.471 40.970,49.471 C38.147,49.471 35.848,48.575 34.073,46.782 C32.298,44.991 31.410,42.747 31.410,40.050 C31.410,37.287 32.295,34.993 34.065,33.167 C35.834,31.342 38.053,30.429 40.722,30.429 C43.556,30.429 45.860,31.342 47.636,33.167 C49.411,34.993 50.299,37.404 50.299,40.400 L50.282,41.265 L35.777,41.265 ZM44.002,35.223 C43.124,34.591 42.105,34.274 40.945,34.274 C39.686,34.274 38.582,34.630 37.632,35.339 C37.035,35.783 36.483,36.566 35.975,37.687 L45.767,37.687 C45.469,36.677 44.880,35.856 44.002,35.223 ZM21.443,68.374 L10.478,86.352 L2.302,86.352 L2.302,56.057 L10.478,56.057 L10.478,75.318 L21.443,56.057 L29.619,56.057 L29.619,86.352 L21.443,86.352 L21.443,68.374 ZM23.437,41.065 C23.437,38.968 23.338,37.548 23.140,36.804 C22.941,36.061 22.602,35.506 22.123,35.140 C21.643,34.773 21.050,34.591 20.345,34.591 C19.429,34.591 18.643,34.895 17.988,35.506 C17.331,36.116 16.877,36.949 16.623,38.003 C16.491,38.546 16.424,39.790 16.424,41.731 L16.424,49.005 L11.942,49.005 L11.942,23.905 L16.424,23.905 L16.424,32.727 C17.307,31.961 18.194,31.386 19.087,31.004 C19.981,30.621 20.885,30.429 21.800,30.429 C23.586,30.429 25.092,31.051 26.316,32.293 C27.363,33.370 27.887,34.951 27.887,37.037 L27.887,49.005 L23.437,49.005 L23.437,41.065 ZM6.831,49.005 L2.316,49.005 L2.316,34.807 L0.000,34.807 L0.000,30.895 L2.316,30.895 L2.316,24.221 L6.831,24.221 L6.831,30.895 L9.511,30.895 L9.511,34.807 L6.831,34.807 L6.831,49.005 Z"/>
</svg>