<?xml version="1.0" standalone="no"?>
<!DOCTYPE svg PUBLIC "-//W3C//DTD SVG 20010904//EN"
 "http://www.w3.org/TR/2001/REC-SVG-20010904/DTD/svg10.dtd">
<svg version="1.0" xmlns="http://www.w3.org/2000/svg"
 width="1392.000000pt" height="1392.000000pt" viewBox="0 0 1392.000000 1392.000000"
 preserveAspectRatio="xMidYMid meet">
<metadata>
Created by potrace 1.11, written by Peter Selinger 2001-2013
</metadata>
<g transform="translate(0.000000,1392.000000) scale(0.100000,-0.100000)"
fill="#000000" stroke="none">
<path d="M2566 13670 c812 -815 1164 -1171 1173 -1188 6 -11 8 -22 5 -25 -8
-8 -7 -174 1 -187 3 -5 3 -10 -2 -10 -4 0 -8 -110 -8 -245 0 -135 4 -245 8
-245 5 0 5 -5 1 -12 -4 -6 -9 -516 -10 -1132 -3 -934 -10 -1778 -16 -1821 -1
-5 2 -21 6 -34 5 -13 4 -21 0 -18 -10 6 -11 -83 -1 -99 3 -6 4 -14 0 -17 -3
-4 -7 -138 -9 -299 -10 -807 -12 -927 -18 -936 -3 -6 -2 -13 4 -17 6 -4 8 -10
5 -15 -4 -7 -15 -585 -19 -1057 0 -108 -5 -183 -11 -183 -5 0 -4 -5 2 -11 6
-6 9 -18 6 -26 -3 -8 15 -33 48 -64 30 -27 119 -111 198 -187 170 -161 200
-190 360 -342 67 -63 177 -168 243 -232 67 -65 123 -118 125 -118 2 0 23 -19
47 -42 42 -42 303 -292 462 -442 45 -42 113 -107 151 -144 39 -37 137 -130
218 -207 81 -77 174 -165 205 -195 32 -30 124 -118 205 -195 81 -77 178 -169
216 -205 37 -36 124 -119 194 -185 70 -66 162 -154 205 -195 43 -41 140 -133
216 -205 75 -71 158 -151 184 -177 l48 -47 -2 -1451 -1 -1451 28 33 c44 52 47
56 47 68 0 5 5 10 10 10 6 0 10 6 10 14 0 8 3 16 8 18 10 4 64 78 57 78 -3 0
3 10 15 22 11 12 20 25 20 29 0 4 6 14 13 21 13 13 172 242 192 276 6 9 13 19
16 22 3 3 14 20 24 38 11 17 23 32 27 32 4 0 8 7 8 15 0 9 7 18 15 21 8 4 15
11 15 16 0 8 55 93 70 108 16 16 70 100 70 109 0 6 4 11 8 11 4 0 16 15 27 32
10 18 23 38 28 43 26 31 177 255 177 264 0 6 4 11 9 11 5 0 24 24 41 52 18 29
36 55 40 58 3 3 15 20 25 37 11 18 23 33 27 33 4 0 8 5 8 11 0 6 13 28 30 49
16 21 30 42 30 47 0 4 11 20 25 35 14 15 25 31 25 36 0 4 8 17 18 28 9 10 25
31 35 47 17 26 17 95 12 1345 -4 724 -8 1694 -10 2155 l-3 837 1135 -2 1136
-3 73 74 c41 40 74 77 74 82 0 5 4 9 8 9 8 0 74 66 642 638 l330 333 -472 475
c-260 261 -513 515 -562 564 -48 50 -91 90 -95 90 -9 0 -18 -9 -636 -631 -264
-265 -482 -488 -485 -496 -3 -8 -169 149 -442 419 -1331 1317 -1546 1531
-1625 1610 -55 56 -91 85 -99 80 -7 -4 -63 -54 -125 -112 -62 -58 -133 -123
-157 -145 -24 -22 -67 -62 -97 -90 -29 -27 -97 -90 -150 -140 -133 -122 -137
-126 -260 -240 -59 -55 -120 -111 -135 -125 -35 -32 -211 -194 -260 -240 -21
-19 -84 -78 -141 -130 -56 -52 -117 -108 -135 -125 -42 -40 -219 -203 -254
-235 -106 -97 -229 -211 -261 -243 -37 -35 -39 -36 -49 -17 -6 11 -7 20 -3 20
9 0 8 84 -1 106 -3 8 -2 14 2 14 9 0 7 94 -2 108 -3 6 -3 13 2 16 8 5 6 91 -3
114 -2 6 -1 12 3 12 9 0 7 84 -2 99 -4 5 -3 12 2 15 8 5 6 91 -3 114 -2 6 -1
12 3 12 9 0 7 84 -2 99 -4 5 -3 12 2 15 8 5 6 91 -3 114 -2 6 -1 12 3 12 9 0
7 84 -2 99 -4 5 -3 12 2 15 8 5 6 91 -3 114 -2 6 -1 12 3 12 9 0 7 82 -2 106
-3 8 -2 14 2 14 8 0 8 71 0 86 -3 5 -2 18 2 29 4 11 4 34 -1 52 -4 18 -4 33 0
33 9 0 5 85 -3 99 -4 5 -3 12 2 15 8 5 6 91 -3 114 -2 6 -1 12 3 12 9 0 7 84
-2 99 -4 5 -3 12 2 15 8 5 6 91 -3 114 -2 6 -1 12 3 12 9 0 7 84 -2 99 -4 5
-3 12 2 15 8 5 6 91 -3 114 -2 6 -1 12 3 12 9 0 7 84 -2 99 -4 5 -3 12 2 15 8
5 6 91 -3 114 -2 6 -1 12 3 12 9 0 7 84 -2 99 -4 5 -3 12 2 15 8 5 6 91 -3
114 -2 6 -1 12 3 12 9 0 7 84 -2 99 -4 5 -3 12 2 15 8 5 6 91 -3 114 -2 6 -1
12 3 12 9 0 7 84 -2 99 -4 5 -3 12 2 15 8 5 6 91 -3 114 -2 6 -1 12 3 12 9 0
7 84 -2 99 -4 5 -3 12 2 15 8 5 6 91 -3 114 -2 6 -1 12 3 12 9 0 7 84 -2 99
-4 5 -3 12 2 15 8 5 6 91 -3 114 -2 6 -1 12 3 12 9 0 7 84 -2 98 -4 6 -3 13 2
16 8 5 6 91 -3 114 -2 6 -1 12 3 12 9 0 7 84 -2 99 -4 5 -3 12 2 15 8 5 6 91
-3 114 -2 6 -1 12 3 12 9 0 7 84 -2 99 -4 5 -3 12 2 15 8 5 6 91 -3 114 -2 6
-1 12 3 12 9 0 7 84 -2 99 -4 5 -3 12 2 15 8 5 6 91 -3 114 -2 6 -1 12 3 12 9
0 7 84 -2 99 -4 5 -3 12 2 15 8 5 6 91 -3 114 -2 6 -1 12 3 12 9 0 7 84 -2 99
-4 5 -3 12 2 15 8 5 6 91 -3 114 -2 6 -1 12 3 12 9 0 7 84 -2 99 -4 5 -3 12 2
15 8 5 6 91 -3 114 -2 6 -1 12 3 12 9 0 7 84 -2 99 -4 5 -3 12 2 15 8 5 6 91
-3 114 -2 6 -1 12 3 12 9 0 7 84 -2 99 -4 5 -3 12 2 15 8 5 6 91 -3 114 -2 6
-1 12 3 12 9 0 7 84 -2 99 -4 5 -3 12 2 15 8 5 6 91 -3 114 -2 6 -1 12 3 12 9
0 7 84 -2 99 -4 5 -3 12 2 15 8 5 6 91 -3 114 -2 6 -1 12 3 12 9 0 7 84 -2 99
-4 5 -3 12 1 14 5 3 7 20 6 39 -1 18 -2 41 -2 51 -1 16 -76 17 -1422 17
l-1421 0 248 -250z m2594 -6223 c0 -2 -17 -19 -37 -38 l-38 -34 34 38 c33 34
41 42 41 34z m-100 -101 c0 -2 -8 -10 -17 -17 -16 -13 -17 -12 -4 4 13 16 21
21 21 13z"/>
</g>
</svg>
