<svg xmlns="http://www.w3.org/2000/svg" width="54" height="45"><path fill-rule="evenodd" fill="#00003E" d="M50.326 45H3.674C1.648 45 0 43.34 0 41.299V3.701C0 1.66 1.648 0 3.674 0H36.33c2.541 0 4.607 2.082 4.607 4.641 0 .551.445.999.992.999h8.397C52.352 5.64 54 7.3 54 9.341v31.958C54 43.34 52.352 45 50.326 45zM24.259 4.641c0-1.587-1.282-2.879-2.857-2.879h-3.404c.346.565.546 1.229.546 1.939v.94c0 .551.445.999.992.999h4.909a2.784 2.784 0 0 1-.186-.999zm7.465 0c0-1.587-1.282-2.879-2.858-2.879h-3.855c.624.792.998 1.792.998 2.879 0 .551.444.999.991.999h4.91a2.762 2.762 0 0 1-.186-.999zm7.464 0c0-1.587-1.282-2.879-2.858-2.879h-3.854c.623.792.997 1.792.997 2.879 0 .551.445.999.991.999h4.91a2.762 2.762 0 0 1-.186-.999zm13.062 4.7a1.934 1.934 0 0 0-1.924-1.939h-30.79c-1.512 0-2.741-1.239-2.741-2.761v-.94a1.935 1.935 0 0 0-1.925-1.939H3.674c-1.061 0-1.925.87-1.925 1.939v37.598c0 1.069.864 1.939 1.925 1.939h46.652c1.061 0 1.924-.87 1.924-1.939V9.341zm-28.93 16.65c-2.137 0-3.793-1.488-3.793-4.104 0-2.688 1.752-4.201 3.817-4.201 2.328 0 3.768 1.609 3.768 4.105 0 2.976-1.872 4.2-3.792 4.2zm0-7.104c-1.417 0-2.064 1.56-2.064 3 0 1.68.936 2.904 2.064 2.904 1.272 0 2.064-1.224 2.064-2.952 0-1.392-.576-2.952-2.064-2.952zm-11.401 6.288a62.328 62.328 0 0 1-2.473-5.304l-.072.024c.096 2.016.144 3.816.144 6.576v6.457H7.646V17.326H9.95l4.081 7.705c.936 1.848 1.776 3.576 2.448 5.209l.024-.024c-.168-2.185-.216-4.009-.216-6.481v-6.409h1.872v15.602h-2.136l-4.104-7.753zm14.569 3.096h-6.313v-1.248h6.313v1.248z"/></svg>