<svg xmlns="http://www.w3.org/2000/svg" width="57" height="45"><path fill-rule="evenodd" fill="#00003E" d="M47.718 36.041c-5.275 3.924-12.274 6.085-19.708 6.085-3.828 0-7.539-.572-11.04-1.702-4.261 2.678-9.736 4.461-9.973 4.538a.912.912 0 0 1-.985-.288.893.893 0 0 1-.084-1.014c.02-.036 1.926-3.359 3.362-6.927-5.914-3.994-9.289-9.67-9.289-15.67 0-5.676 2.948-10.995 8.301-14.978C13.577 2.161 20.576-.001 28.01-.001c7.434 0 14.433 2.162 19.708 6.086 5.352 3.983 8.3 9.302 8.3 14.978s-2.948 10.995-8.3 14.978zM28.01 1.8c-14.444 0-26.194 8.641-26.194 19.263 0 5.582 3.308 10.89 9.075 14.562.361.23.51.679.359 1.077-.826 2.164-1.845 4.267-2.612 5.753 2.063-.796 5.195-2.135 7.707-3.773a.913.913 0 0 1 .79-.1c3.435 1.157 7.093 1.744 10.875 1.744 14.443 0 26.194-8.642 26.194-19.263C54.204 10.441 42.453 1.8 28.01 1.8zm12.789 26.001H15.201c-.553 0-1-.446-1-.995 0-.55.447-.995 1-.995h25.598c.552 0 1 .445 1 .995a.998.998 0 0 1-1 .995zm0-5.306H15.201c-.553 0-1-.445-1-.995a.997.997 0 0 1 1-.995h25.598c.552 0 1 .446 1 .995 0 .55-.448.995-1 .995zm0-5.306H15.201c-.553 0-1-.445-1-.995a.997.997 0 0 1 1-.995h25.598c.552 0 1 .446 1 .995 0 .55-.448.995-1 .995z"/></svg>