<svg xmlns="http://www.w3.org/2000/svg" width="45" height="45"><path fill-rule="evenodd" fill="#00003E" d="M41.938 45H3.062A3.065 3.065 0 0 1 0 41.938V28.72a3.064 3.064 0 0 1 3.062-3.061h3.936v-3.208h-.995a2.287 2.287 0 0 1-2.164 1.555 2.286 2.286 0 0 1-2.284-2.284v-3.11a2.287 2.287 0 0 1 2.284-2.284c1.005 0 1.859.652 2.164 1.555H9.33V2.284A2.287 2.287 0 0 1 11.614 0h21.771a2.286 2.286 0 0 1 2.284 2.284v15.599h3.328a2.287 2.287 0 0 1 2.164-1.555 2.287 2.287 0 0 1 2.284 2.284v3.11a2.286 2.286 0 0 1-2.284 2.284 2.287 2.287 0 0 1-2.164-1.555h-.995v3.208h3.936A3.064 3.064 0 0 1 45 28.72v13.218A3.065 3.065 0 0 1 41.938 45zM4.665 18.612a.827.827 0 0 0-1.652 0v3.11a.827.827 0 0 0 1.652 0v-3.11zm35.67 3.11a.827.827 0 0 0 1.652 0v-3.11a.827.827 0 0 0-1.652 0v3.11zM34.212 2.284a.827.827 0 0 0-.827-.826H11.614a.827.827 0 0 0-.826.826v15.599h23.424V2.284zm4.665 18.71v-1.653H6.123v1.653h32.754zm-24.103 1.457c.247.928.959 1.798 2.07 2.505 1.499.955 3.508 1.48 5.656 1.48 2.148 0 4.156-.525 5.656-1.48 1.111-.707 1.823-1.577 2.07-2.505H14.774zm28.768 6.269c0-.884-.719-1.603-1.604-1.603h-4.665a.73.73 0 0 1-.729-.729v-3.937h-4.825c-.245 1.43-1.21 2.736-2.78 3.735-1.731 1.101-4.018 1.708-6.439 1.708-2.422 0-4.708-.607-6.439-1.708-1.57-.999-2.535-2.305-2.78-3.735H8.456v3.937a.73.73 0 0 1-.729.729H3.062c-.885 0-1.604.719-1.604 1.603v13.218c0 .885.719 1.604 1.604 1.604h38.876c.885 0 1.604-.719 1.604-1.604V28.72zm-3.936 4.172h-1.555a.729.729 0 1 1 0-1.458h1.555a.73.73 0 0 1 0 1.458zm-1.604 2.381a.729.729 0 0 1-.729.729h-1.555a.729.729 0 1 1 0-1.458h1.555a.73.73 0 0 1 .729.729zm-3.061-2.381h-1.556a.728.728 0 0 1 0-1.458h1.556a.728.728 0 0 1 0 1.458zm-1.604 2.381a.729.729 0 0 1-.729.729h-1.555a.729.729 0 1 1 0-1.458h1.555a.73.73 0 0 1 .729.729zm-3.062-2.381H28.72a.73.73 0 0 1 0-1.458h1.555a.729.729 0 1 1 0 1.458zm-1.603 2.381a.73.73 0 0 1-.729.729h-1.555a.729.729 0 1 1 0-1.458h1.555a.73.73 0 0 1 .729.729zm-3.062-2.381h-1.555a.729.729 0 1 1 0-1.458h1.555a.729.729 0 1 1 0 1.458zm-1.604 2.381a.729.729 0 0 1-.729.729h-1.555a.73.73 0 0 1 0-1.458h1.555a.73.73 0 0 1 .729.729zm-3.061-2.381H19.39a.729.729 0 1 1 0-1.458h1.555a.73.73 0 0 1 0 1.458zm-1.604 2.381a.729.729 0 0 1-.729.729h-1.555a.73.73 0 0 1 0-1.458h1.555a.73.73 0 0 1 .729.729zm-3.061-2.381h-1.555a.729.729 0 1 1 0-1.458h1.555a.73.73 0 0 1 0 1.458zm-1.604 2.381a.729.729 0 0 1-.729.729h-1.555a.729.729 0 1 1 0-1.458h1.555a.73.73 0 0 1 .729.729zm-3.062-2.381h-1.555a.73.73 0 0 1 0-1.458h1.555a.729.729 0 1 1 0 1.458zm-1.603 2.381a.73.73 0 0 1-.729.729H7.727a.729.729 0 1 1 0-1.458h1.555a.73.73 0 0 1 .729.729zm-3.062-2.381H5.394a.729.729 0 1 1 0-1.458h1.555a.729.729 0 1 1 0 1.458zm3.11 4.762h1.555a.73.73 0 0 1 0 1.458h-1.555a.73.73 0 0 1 0-1.458zm4.666 0h15.55a.73.73 0 0 1 0 1.458h-15.55a.729.729 0 1 1 0-1.458zm18.66 0h1.556a.729.729 0 0 1 0 1.458h-1.556a.728.728 0 0 1 0-1.458zM14.725 6.22h15.55a.73.73 0 0 1 0 1.458h-15.55a.729.729 0 1 1 0-1.458zm0 3.888h15.55a.729.729 0 1 1 0 1.458h-15.55a.73.73 0 0 1 0-1.458z"/></svg>