<svg xmlns="http://www.w3.org/2000/svg" width="45" height="62"><path fill-rule="evenodd" fill="#00003E" d="M41.75 61.828H3.353A3.13 3.13 0 0 1 .219 58.71V12.018l.002-.033.001-.035a.993.993 0 0 1 .016-.122v-.005a1.102 1.102 0 0 1 .095-.265l.004-.008a.986.986 0 0 1 .175-.235v-.001L11.178.703l.001-.001c.031-.03.065-.059.1-.086l.025-.018a.897.897 0 0 1 .111-.069l.007-.004a.921.921 0 0 1 .116-.05l.022-.009a.92.92 0 0 1 .13-.035h.002c.041-.008.083-.013.126-.016l.033-.002.034-.001H41.75a3.128 3.128 0 0 1 3.133 3.117V58.71a3.129 3.129 0 0 1-3.133 3.118zM10.885 3.808l-7.252 7.215h6.119a1.13 1.13 0 0 0 1.133-1.127V3.808zm31.999-.279c0-.622-.509-1.128-1.134-1.128H12.885v7.495a3.128 3.128 0 0 1-3.133 3.117H2.219V58.71c0 .622.509 1.128 1.134 1.128H41.75c.625 0 1.134-.506 1.134-1.128V3.529zM31.618 53.338c-3.198 0-5.8-2.588-5.8-5.77 0-3.182 2.602-5.77 5.8-5.77s5.799 2.588 5.799 5.77c0 3.182-2.601 5.77-5.799 5.77zm0-9.55c-2.096 0-3.8 1.695-3.8 3.78s1.704 3.781 3.8 3.781c2.095 0 3.799-1.696 3.799-3.781s-1.704-3.78-3.799-3.78zm0 5.306a1.532 1.532 0 0 1-1.534-1.526c0-.841.688-1.525 1.534-1.525a1.53 1.53 0 0 1 1.533 1.525c0 .841-.688 1.526-1.533 1.526zm3.733-10.613H9.752c-.552 0-1-.445-1-.994 0-.55.448-.995 1-.995h25.599c.552 0 1 .445 1 .995a.997.997 0 0 1-1 .994zm0-5.305H9.752c-.552 0-1-.446-1-.995 0-.55.448-.995 1-.995h25.599c.552 0 1 .445 1 .995a.998.998 0 0 1-1 .995zm0-5.306H9.752c-.552 0-1-.446-1-.995 0-.55.448-.995 1-.995h25.599c.552 0 1 .445 1 .995a.998.998 0 0 1-1 .995zm0-5.306H9.752c-.552 0-1-.445-1-.995a.998.998 0 0 1 1-.995h25.599c.552 0 1 .446 1 .995 0 .55-.448.995-1 .995zm0-5.306H9.752c-.552 0-1-.445-1-.995a.998.998 0 0 1 1-.995h25.599c.552 0 1 .446 1 .995 0 .55-.448.995-1 .995zM9.752 43.92h12.799c.553 0 1 .446 1 .995 0 .55-.447.995-1 .995H9.752c-.552 0-1-.445-1-.995a.998.998 0 0 1 1-.995zm0 5.306h12.799c.553 0 1 .445 1 .995s-.447.995-1 .995H9.752c-.552 0-1-.445-1-.995s.448-.995 1-.995z"/></svg>