<svg xmlns="http://www.w3.org/2000/svg" width="47" height="62"><path fill-rule="evenodd" fill="#00003E" d="M17.005 2.399v-.066c0-1.14-.929-2.067-2.071-2.067H8.521A2.071 2.071 0 0 0 6.45 2.333v.066H3.176a3.14 3.14 0 0 0-3.14 3.134v53.334a3.14 3.14 0 0 0 3.14 3.134h40.618a3.14 3.14 0 0 0 3.14-3.134V5.533a3.14 3.14 0 0 0-3.14-3.134H17.005zm-8.484-.133h6.413c.037 0 .067.03.067.067v12.249l-2.826-1.41a1.007 1.007 0 0 0-.896 0l-2.825 1.41V2.333c0-.037.03-.067.067-.067zM44.93 58.867c0 .625-.51 1.134-1.136 1.134H3.176a1.136 1.136 0 0 1-1.135-1.134V5.533c0-.625.509-1.133 1.135-1.133H6.45v11.8a1.003 1.003 0 0 0 1.45.894l3.827-1.91 3.828 1.91a.997.997 0 0 0 .975-.043c.295-.183.475-.505.475-.851V4.4h26.789c.626 0 1.136.508 1.136 1.133v53.334zm-6.553-20.374l-.009-.06-.007-.04-.01-.04c-.006-.019-.01-.039-.017-.059l-.009-.026a.983.983 0 0 0-.027-.069l-.002-.005-4.189-9.406v-.921h1.136c.553 0 1.002-.448 1.002-1s-.449-1-1.002-1H24.487v-1.365a3.14 3.14 0 0 0 2.138-2.969 3.14 3.14 0 0 0-6.28 0 3.14 3.14 0 0 0 2.138 2.969v1.365H11.727c-.553 0-1.002.448-1.002 1s.449 1 1.002 1h1.136v.921l-4.189 9.406a.983.983 0 0 0-.029.074l-.009.026c-.007.02-.011.039-.016.059a.595.595 0 0 0-.011.04l-.007.04-.009.06-.002.028a.91.91 0 0 0-.003.073l-.001.006c0 2.316 2.368 4.2 5.278 4.2 2.91 0 5.278-1.884 5.278-4.2l-.001-.006a.91.91 0 0 0-.003-.073l-.002-.028-.009-.06-.007-.04-.01-.04c-.005-.019-.01-.039-.017-.059l-.009-.026a.983.983 0 0 0-.027-.069l-.002-.005-4.189-9.406v-.921h7.616v8.831a3.138 3.138 0 0 0-2.138 2.969V47.2h-2.204a1.001 1.001 0 1 0 0 2h10.688a1 1 0 1 0 0-2h-2.204v-7.533a3.138 3.138 0 0 0-2.138-2.969v-8.831h7.616v.921l-4.189 9.406a.983.983 0 0 0-.029.074c-.003.009-.007.017-.009.026a.654.654 0 0 0-.017.059l-.01.04-.007.04-.009.06-.002.028a.91.91 0 0 0-.003.073l-.001.006c0 2.316 2.368 4.2 5.278 4.2 2.91 0 5.278-1.884 5.278-4.2l-.001-.006a.91.91 0 0 0-.003-.073l-.002-.028zm-13.756-16.96a1.137 1.137 0 0 1-2.272 0 1.136 1.136 0 0 1 2.272 0zM16.599 37.6h-5.468l2.734-6.138 2.734 6.138zm-5.637 2h5.806c-.552.706-1.66 1.2-2.903 1.2s-2.35-.494-2.903-1.2zm11.387 7.6v-7.533a1.136 1.136 0 0 1 2.272 0V47.2h-2.272zm13.49-9.6h-5.468l2.734-6.138 2.734 6.138zm-5.637 2h5.806c-.553.706-1.66 1.2-2.903 1.2s-2.35-.494-2.903-1.2z"/></svg>