<svg xmlns="http://www.w3.org/2000/svg" width="57" height="45"><path fill-rule="evenodd" fill="#00003E" d="M28.01-.001c-7.434 0-14.433 2.162-19.708 6.086C2.949 10.068.001 15.387.001 21.063c0 6 3.375 11.676 9.289 15.67-1.436 3.568-3.342 6.891-3.362 6.927a.894.894 0 0 0 .084 1.014.909.909 0 0 0 .985.288c.237-.077 5.712-1.86 9.973-4.538 3.501 1.13 7.212 1.702 11.04 1.702 7.434 0 14.433-2.161 19.708-6.085 5.353-3.983 8.3-9.302 8.3-14.978s-2.947-10.995-8.3-14.978C42.443 2.161 35.444-.001 28.01-.001zM17.135 38.582a.913.913 0 0 0-.79.1c-2.512 1.638-5.644 2.977-7.707 3.773.767-1.486 1.786-3.589 2.612-5.753a.898.898 0 0 0-.359-1.077c-5.767-3.672-9.075-8.98-9.075-14.562C1.816 10.441 13.566 1.8 28.01 1.8c14.443 0 26.194 8.641 26.194 19.263 0 10.622-11.751 19.263-26.194 19.263-3.781 0-7.44-.587-10.875-1.744zm8.032-5.997c0 1.555 1.275 2.82 2.843 2.82s2.843-1.265 2.843-2.82c0-1.556-1.275-2.821-2.843-2.821s-2.843 1.265-2.843 2.821zm1.814 0c0-.563.462-1.02 1.029-1.02s1.028.457 1.028 1.02c0 .562-.461 1.02-1.028 1.02a1.026 1.026 0 0 1-1.029-1.02zm1.033-4.861a2.021 2.021 0 0 0 2.028-1.92l.763-16.176a1.863 1.863 0 0 0-.517-1.371 1.888 1.888 0 0 0-1.357-.576h-1.843c-.51 0-1.004.209-1.356.576a1.855 1.855 0 0 0-.517 1.371l.763 16.176a2.02 2.02 0 0 0 2.028 1.92h.008zm-.926-18.243h1.843c.007 0 .026 0 .044.018.018.019.017.038.017.045l-.764 16.176a.213.213 0 0 1-.215.203h-.007a.214.214 0 0 1-.215-.203l-.763-16.176a.057.057 0 0 1 .016-.045c.018-.018.037-.018.044-.018z"/></svg>