<svg xmlns="http://www.w3.org/2000/svg" width="51" height="63"><path fill-rule="evenodd" fill="#00003E" d="M42.993 38V3.149a1.14 1.14 0 0 0-1.141-1.139H12.781v7.572a3.156 3.156 0 0 1-3.156 3.149H2.038v46.171c0 .628.513 1.14 1.142 1.14H29v2.01H3.18a3.157 3.157 0 0 1-3.156-3.15V11.726l.002-.034.002-.034a.978.978 0 0 1 .015-.124l.001-.005c.009-.044.021-.087.035-.129l.009-.024c.015-.039.032-.078.051-.115l.004-.008a1.168 1.168 0 0 1 .088-.136c.028-.035.057-.07.088-.101v-.001L11.062.294V.293c.032-.031.066-.06.102-.087l.024-.018c.036-.026.073-.05.112-.071l.007-.003a1.01 1.01 0 0 1 .139-.059.979.979 0 0 1 .26-.053l.033-.001.035-.002h30.078a3.157 3.157 0 0 1 3.156 3.15V38h-2.015zM10.767 3.431l-7.304 7.29h6.162c.63 0 1.142-.511 1.142-1.139V3.431zM9.625 42.886h12.891a1.006 1.006 0 1 1 0 2.011H9.625a1.006 1.006 0 1 1 0-2.011zm0-5.361h12.891a1.006 1.006 0 0 1 0 2.011H9.625a1.006 1.006 0 1 1 0-2.011zm25.782-8.711H9.625a1.006 1.006 0 1 1 0-2.01h25.782a1.006 1.006 0 1 1 0 2.01zm0 5.361H9.625a1.006 1.006 0 1 1 0-2.01h25.782a1.006 1.006 0 1 1 0 2.01z"/><path fill-rule="evenodd" fill="#00003E" d="M36.999 17.874V15c0-1.105-.897-1.916-1.944-1.916h-1.592L30.57 9.105c-.449-.663-1.197-1.032-2.019-1.032h-3.235A.841.841 0 0 0 24.962 8a.843.843 0 0 0-.353.073h-3.235c-.823 0-1.57.369-2.019 1.032l-2.893 3.979h-1.518A1.916 1.916 0 0 0 13.001 15v2.874c0 1.105.822 1.916 1.943 1.916h1.142A2.997 2.997 0 0 0 18.982 22a2.995 2.995 0 0 0 2.895-2.21h6.171A2.996 2.996 0 0 0 30.944 22a2.995 2.995 0 0 0 2.895-2.21h1.142c1.121 0 1.943-.811 2.018-1.916zm-5.361-4.79H25.71V9.473h2.766c.374 0 .673.148.823.369l2.339 3.242zM21.299 9.473h2.916v3.611h-6.004l2.266-3.242c.224-.221.523-.369.822-.369zm-3.813 9.58c0-.811.673-1.474 1.496-1.474.822 0 1.495.663 1.495 1.474a1.49 1.49 0 0 1-1.495 1.474c-.823 0-1.496-.664-1.496-1.474zm1.53-2.947l-.034-.001a2.996 2.996 0 0 0-2.896 2.211h-1.142c-.224 0-.448-.221-.448-.442V15c0-.221.224-.442.448-.442h1.459c.099.046.21.073.336.073h16.447a.794.794 0 0 0 .337-.073h1.532c.225 0 .449.221.449.442v2.874c0 .221-.224.442-.449.442h-1.196c-.374-1.253-1.346-2.211-2.766-2.211l-.081.002-.069-.002a2.994 2.994 0 0 0-2.895 2.211h-6.076c-.374-1.253-1.495-2.211-2.916-2.211l-.04.001zm10.432 2.947c0-.811.673-1.474 1.495-1.474.823 0 1.496.663 1.496 1.474 0 .811-.673 1.474-1.496 1.474a1.49 1.49 0 0 1-1.495-1.474zM29.999 62h-.992V50.404L29 50.383v-5.675h4v-.961c0-3.747 3.1-6.725 7-6.725v-.021l.024.006s.869-.04 1.976.276v.007c.139.04.275.084.41.133.275.095.54.207.797.333.268.137.538.298.801.489.661.48 1.258 1.133 1.993 2.027.009.012.02.022.03.034a6.544 6.544 0 0 1 .97 3.441v.961h4V62H29.999zm15.002-18.253c0-.881-.238-1.7-.653-2.403a.663.663 0 0 1-.147-.191c-.768-1.106-1.831-1.814-3.052-2.084a.793.793 0 0 1-.349-.03 1.952 1.952 0 0 0-.296-.07c-.038-.004-.076-.008-.114-.01l-.1-.008a5.553 5.553 0 0 0-.29-.008c-2.8 0-5 2.114-5 4.804v.961h10.001v-.961zm4 2.882H31v13.449h18.001V46.629zM40 48.55c2.2 0 4.001 1.729 4.001 3.843 0 1.782-1.28 3.291-3.001 3.72v1.083c0 .577-.4.961-1 .961s-1-.384-1-.961v-1.083c-1.72-.429-3-1.938-3-3.72 0-2.114 1.8-3.843 4-3.843zm0 5.764c1.1 0 2-.864 2-1.921s-.9-1.922-2-1.922-2 .865-2 1.922.9 1.921 2 1.921z"/></svg>