<svg xmlns="http://www.w3.org/2000/svg" width="48" height="63"><path fill-rule="evenodd" fill="#00003E" d="M34.899 57.346c-3.305 2.615-6.874 4.506-10.611 5.623a1.042 1.042 0 0 1-.595 0c-3.737-1.116-7.306-3.008-10.611-5.623C4.884 50.861-.009 40.445-.009 29.484V9.435c0-.58.467-1.051 1.043-1.051 15.334 0 22.088-7.946 22.155-8.026.397-.478 1.205-.479 1.602-.001.097.115 6.925 8.028 22.156 8.028.576 0 1.044.471 1.044 1.051v20.048c0 10.961-4.894 21.376-13.092 27.862zm11.005-46.871c-12.775-.286-19.686-5.774-21.913-7.927-2.228 2.152-9.139 7.641-21.913 7.927v19.011c0 10.32 4.595 20.12 12.294 26.21 3.008 2.38 6.243 4.119 9.619 5.169 3.375-1.051 6.61-2.789 9.618-5.169 7.699-6.091 12.295-15.89 12.295-26.21V10.475zM31.031 52.393c-2.112 1.67-4.353 2.979-6.66 3.89a1.038 1.038 0 0 1-.761 0c-2.308-.912-4.549-2.221-6.659-3.89-6.7-5.301-10.7-13.864-10.7-22.906V15.349c0-.528.391-.975.912-1.042 7.723-.992 13.095-3.765 16.241-5.917a1.035 1.035 0 0 1 1.173 0c3.146 2.152 8.518 4.925 16.241 5.917.521.067.912.514.912 1.042v14.138c0 9.042-4 17.605-10.699 22.906zm8.612-36.129c-7.199-1.072-12.392-3.62-15.652-5.746-3.261 2.126-8.454 4.674-15.653 5.746v13.22c0 8.404 3.703 16.349 9.903 21.255 1.833 1.451 3.766 2.604 5.75 3.431 1.983-.826 3.916-1.98 5.75-3.431 6.201-4.905 9.902-12.85 9.902-21.253V16.264zM21.938 40.952h-.034c-.277 0-.542-.11-.738-.308l-8.348-8.404a1.054 1.054 0 0 1 0-1.485 1.038 1.038 0 0 1 1.476 0l7.558 7.61 13.875-15.963a1.039 1.039 0 0 1 1.472-.099c.434.382.478 1.045.098 1.482L22.688 40.594c-.19.219-.461.349-.75.358z"/></svg>