<svg xmlns="http://www.w3.org/2000/svg" width="40" height="50"><path fill-rule="evenodd" fill="#00003E" d="M36.558 28.363c-.482-.595-1.537-1.436-3.071-2.017l-.245-.073a34.797 34.797 0 0 0-3.496-1.372 9.18 9.18 0 0 1-.846-.33c-1.759-.861-1.988-1.365-2.023-1.479l-.091-.205.081-.189c1.317-1.629 2.243-3.53 2.599-5.33l.055-.126c.362-.457.595-.993.685-1.585.416-1.502.438-2.603.064-3.372l-.041-.084.021-.089c.468-1.944.918-5.586-1.328-8.123-.356-.443-1.724-1.954-4.401-2.733L23.215.812c-2.183-.667-3.536-.811-3.714-.813-.142 0-.267.014-.448.058l-.176.029c-.69-.111-1.544.199-1.774.288-.755.313-4.574 2.069-5.784 5.792-.201.526-.611 2.135-.079 5.656l.015.108-.066.087c-.542.721-.584 1.896-.129 3.483.116.7.345 1.258.687 1.686l.061.127c.331 1.841 1.156 3.663 2.385 5.265l.113.152-.108.155a.62.62 0 0 0-.097.209c-.306.865-3.704 2.372-6.684 3.278-2.145.807-3.087 2.113-3.091 2.123C1.37 32.852.997 42.205.981 42.608c.047 2.433 1.159 2.928 1.373 2.999l.187.083c6.533 2.833 16.075 3.385 17.143 3.439l.334.01c.32 0 .642-.018.945-.033l.026-.002.098.007c.081.02.142.028.209.028h.046c.435-.022 10.679-.6 17.073-3.454.464-.12 1.547-.67 1.587-3.145-.016-.4-.443-9.773-3.341-14.059l-.103-.118zm-21.209-4.467l.176.166c1.566 1.466 3.297 2.273 4.875 2.273 1.657 0 3.367-.716 4.948-2.069l.131-.112.346.168c.292.268.819.648 1.056.764l.328.158-.036.035.127.075c.297.175.616.345.979.525.369.161.684.283 1.016.393.066.023 1.626.523 3.407 1.342l.317.097c1.69.641 2.403 1.543 2.429 1.574 2.622 3.868 3.065 12.317 3.107 13.262-.02 1.323-.397 1.662-.499 1.729-5.877 2.616-14.759 3.294-16.477 3.403l-.048.003-.05-.014a.582.582 0 0 0-.19-.026h-.001l-.059.002c-.471.032-.86.048-1.223.048h-.283c-1.073-.062-10.647-.688-16.777-3.399-.125-.05-.488-.465-.513-1.679.003-.089.315-9.209 3.068-13.273.135-.17.883-1.036 2.38-1.604 1.314-.403 4.567-1.474 6.346-2.755.081-.046.162-.131.228-.2.13-.141.401-.43.714-.721l.178-.165zm-2.91-11.094a.735.735 0 0 0 .31-.72c-.597-3.576-.207-5.066-.072-5.441C13.718 3.465 17 1.978 17.645 1.715c.134-.052.385-.128.65-.17l.067-.015.544-.03.002.032.117-.011c.108-.01.211-.026.336-.052l.125-.028c.1.001 1.367.159 3.277.74l1.317.45c2.402.705 3.521 2.028 3.726 2.291 1.93 2.177 1.415 5.459.936 7.222a.715.715 0 0 0 .095.587l.107.138c.176.233.243 1.016-.152 2.47-.079.474-.256.859-.518 1.115a.778.778 0 0 0-.184.381c-.651 3.803-4.08 8.058-7.692 8.058-3.071 0-6.572-3.916-7.202-8.056a.748.748 0 0 0-.194-.401c-.262-.269-.429-.659-.532-1.237-.301-1.087-.333-1.963-.092-2.328l.061-.069z"/></svg>