<svg xmlns="http://www.w3.org/2000/svg" width="53" height="50"><path fill-rule="evenodd" fill="#333365" d="M49.433 28.231c-.363-.442-1.156-1.07-2.313-1.506l-.177-.053a26.27 26.27 0 0 0-2.617-1.02 7.247 7.247 0 0 1-.63-.242c-1.33-.647-1.48-1.025-1.502-1.084l-.06-.139.051-.125c.988-1.214 1.682-2.628 1.946-3.961l.039-.091a2.51 2.51 0 0 0 .517-1.186c.314-1.121.327-1.945.045-2.522l-.025-.051.013-.057c.351-1.449.689-4.163-.997-6.057-.269-.333-1.303-1.459-3.308-2.039l-.978-.33c-1.602-.487-2.615-.604-2.784-.607-.106 0-.202.013-.341.043l-.121.024a1.433 1.433 0 0 0-.226-.017c-.536 0-1.116.232-1.116.232-.565.235-3.435 1.541-4.345 4.316-.151.394-.46 1.593-.061 4.217l.01.065-.041.055c-.409.543-.444 1.425-.103 2.609.089.525.262.944.517 1.26l.043.089c.252 1.373.87 2.727 1.79 3.917l.073.096-.068.096a.526.526 0 0 0-.078.163c-.141.397-1.22 1.026-2.893 1.687-.374-.134-.634-.218-.726-.248a9.87 9.87 0 0 1-.851-.331c-1.769-.861-2.002-1.363-2.037-1.479l-.093-.204.082-.189c1.328-1.632 2.259-3.532 2.617-5.331l.055-.123c.367-.461.602-.999.69-1.586.422-1.5.445-2.604.064-3.374l-.041-.082.022-.087c.472-1.946.925-5.587-1.338-8.124-.359-.444-1.738-1.954-4.432-2.732l-1.316-.446c-2.198-.666-3.562-.812-3.739-.814a1.84 1.84 0 0 0-.452.059l-.177.028c-.729-.116-1.625.225-1.787.288-.759.314-4.606 2.07-5.826 5.791-.204.527-.616 2.135-.08 5.656l.016.106-.067.088c-.546.719-.587 1.896-.13 3.484.117.699.349 1.258.693 1.685l.06.125c.333 1.844 1.164 3.664 2.402 5.267l.116.149-.11.158a.6.6 0 0 0-.099.207c-.307.864-3.731 2.373-6.731 3.276-2.16.808-3.108 2.116-3.114 2.124C.389 33.711.013 43.064 0 43.466c.046 2.433 1.166 2.928 1.381 2.999l.19.082c6.58 2.832 16.192 3.384 17.267 3.439l.336.01c.321 0 .646-.018.952-.034l.027-.001.099.007a.9.9 0 0 0 .212.03h.001l.045-.002c.435-.022 10.754-.601 17.194-3.452.351-.092 1.487-.573 1.589-2.938 2.296-.196 7.789-.821 11.52-2.471.276-.071 1.181-.45 1.212-2.371-.043-.739-.402-7.341-2.516-10.444l-.076-.089zm-34.969-3.468l.178.164c1.575 1.465 3.32 2.27 4.909 2.27 1.668 0 3.391-.715 4.981-2.067l.135-.112.349.169c.296.265.828.648 1.067.764l.328.158-.035.033.126.075c.301.175.621.346.986.525.37.162.688.284 1.024.394.066.022 1.638.523 3.429 1.341l.32.098c1.703.64 2.422 1.541 2.449 1.572 2.642 3.87 3.086 12.317 3.13 13.261-.021 1.32-.402 1.662-.501 1.728-5.922 2.616-14.868 3.296-16.599 3.405l-.049.003-.049-.015a.662.662 0 0 0-.192-.025h-.002l-.061.002c-.473.032-.865.048-1.23.048h-.287c-1.078-.064-10.725-.688-16.899-3.398-.124-.051-.489-.467-.516-1.681.001-.09.318-9.208 3.092-13.272.135-.168.889-1.035 2.396-1.603 1.324-.402 4.601-1.473 6.394-2.754.075-.045.149-.12.229-.201.131-.139.404-.428.719-.718l.179-.164zm18.025 2.376a31.688 31.688 0 0 0-1.262-.541c.617-.285 1.122-.564 1.496-.834a.892.892 0 0 0 .178-.154c.135-.144.318-.336.531-.533l.115-.104.109.106c1.179 1.093 2.482 1.692 3.666 1.692 1.249 0 2.536-.533 3.721-1.541l.084-.071.239.115c.219.2.616.482.793.569l.207.096-.026.025.13.075c.226.133.467.26.737.391.277.121.513.212.763.295.048.016 1.207.382 2.546.995l.236.071c1.22.461 1.751 1.093 1.802 1.158 1.971 2.883 2.289 9.133 2.318 9.83-.014.966-.286 1.213-.353 1.257-3.709 1.638-9.035 2.253-11.274 2.447-.202-2.869-.92-9.625-3.315-13.139l-.101-.12c-.486-.591-1.549-1.43-3.095-2.015l-.245-.07zm-1.101-10.418a.573.573 0 0 0 .244-.562c-.445-2.639-.156-3.747-.056-4.026.776-2.35 3.219-3.446 3.699-3.64.097-.037.283-.092.481-.125l.059-.014.369-.019.003.025.111-.01c.082-.007.162-.019.218-.031l.124-.027c.079.001 1.044.125 2.442.548l.986.334c1.791.521 2.62 1.496 2.773 1.693 1.439 1.611 1.053 4.035.694 5.337a.561.561 0 0 0 .077.46l.08.101c.101.134.193.666-.119 1.812-.058.348-.189.627-.376.813a.553.553 0 0 0-.146.298c-.485 2.813-3.038 5.957-5.728 5.957-2.284 0-4.888-2.894-5.357-5.957a.603.603 0 0 0-.152-.311c-.191-.195-.314-.479-.391-.909-.225-.796-.25-1.44-.077-1.699l.042-.048zm-19.855-3.054a.728.728 0 0 0 .313-.718c-.604-3.578-.209-5.065-.074-5.439 1.049-3.178 4.356-4.663 5.005-4.926.136-.052.388-.127.655-.17l.072-.016.544-.029.002.033.117-.011c.109-.01.215-.027.34-.051l.124-.029c.101.002 1.378.16 3.303.742l1.324.449c2.42.706 3.547 2.027 3.754 2.291 1.946 2.18 1.426 5.459.944 7.221a.696.696 0 0 0 .096.587l.107.137c.177.234.244 1.019-.152 2.471-.08.474-.259.859-.52 1.114a.735.735 0 0 0-.185.381c-.659 3.804-4.114 8.056-7.752 8.056-3.092 0-6.618-3.914-7.254-8.053a.733.733 0 0 0-.193-.401c-.266-.27-.433-.659-.537-1.238-.306-1.089-.338-1.965-.095-2.33l.062-.071z"/></svg>