<svg xmlns="http://www.w3.org/2000/svg" width="80" height="15"><defs><clipPath id="a"><path d="M0 841.89h595.28V0H0z"/></clipPath></defs><g clip-path="url(#a)" transform="matrix(.3705 0 0 -.36437 -71.11 274.59)" fill="#4f4f5b"><path d="M219.038 753.447h18.879l-8.702-40.877h-8.193l7.002 32.91-7.313-.027h-1.758c-4.101 0-6.407-.17-6.917-.51-2.57-.662-4.932-2.07-7.087-4.224-2.362-2.59-3.817-5.17-4.365-7.74-.662-3.174-.057-6.094 1.814-8.758 1.323-1.57 2.542-2.514 3.657-2.835 1.077-.605 3.07-.907 5.98-.907h5.699l-1.701-7.91H209.2c-5.045 0-9.042 1.333-11.991 3.998-2.097 2.003-3.401 3.817-3.911 5.443-1.4 3.363-1.73 6.803-.993 10.318l.255 1.19c1.059 4.914 3.865 9.42 8.42 13.522 2.683 2.173 4.8 3.544 6.349 4.11 1.134.568 2.655 1.106 4.564 1.617 1.7.453 4.082.68 7.144.68m20.848-.007h12.065c2.128 0 3.66-.638 4.599-1.915.426-.504.695-.99.808-1.46.26-.938.3-1.854.117-2.749l-.117-.534c-.295-1.373-1.177-2.714-2.645-4.026-.912-.73-1.707-1.199-2.384-1.407 1.225-1.685 1.542-3.913.95-6.684h-3.79l.065.287c.434 2.05-.052 3.678-1.46 4.886-.8.668-1.963 1.003-3.491 1.003H237.2l.769 3.622h12.299c1.347 0 2.398.664 3.153 1.993.113.27.2.495.26.678.157.738-.012 1.407-.507 2.006-.443.417-.96.626-1.551.626 0 .034-.182.052-.547.052h-11.974zm20.32-.006h18.892l-.768-3.635h-7.544l-3.218-15.127h-3.805l3.218 15.127h-7.544zm-6.915-35.379c.627 0 1.103.108 1.428.325.325.217.536.542.633.976.12.482.072.807-.145.975-.217.169-.603.253-1.156.253h-10.226c-1.133 0-1.784-.397-1.952-1.192-.12-.506-.072-.855.145-1.048.217-.193.674-.29 1.373-.29zm10.444-1.771c-.29-1.252-.916-2.186-1.88-2.8-.963-.614-2.131-.922-3.504-.922h-22.548c-1.326 0-2.331.35-3.018 1.048-.686.699-.873 1.699-.56 3l2.927 12.647a3.85 3.85 0 0 0 .74 1.59 5.59 5.59 0 0 0 1.356 1.246c.53.349 1.12.62 1.77.813a6.95 6.95 0 0 0 1.988.29h24.789c.457 0 .842-.157 1.156-.47.313-.314.42-.675.325-1.084l-.578-2.494a1.339 1.339 0 0 0-.29-.542 2.433 2.433 0 0 0-.523-.451 3.303 3.303 0 0 0-.651-.326 1.931 1.931 0 0 0-.668-.126h-18.971c-.7 0-1.186-.072-1.464-.217-.277-.144-.475-.494-.595-1.048-.097-.361.01-.626.325-.795.313-.17.626-.265.939-.29h15.972c1.035 0 1.86-.107 2.475-.324.614-.217 1.066-.506 1.355-.867.289-.362.439-.79.452-1.283a7.096 7.096 0 0 0-.163-1.608zm26.378 22.076c-1.442 0-3.399.193-4.798 1.764-1.419 1.593-1.527 3.894-1.527 5.55 0 2.152.193 4.368 1.463 5.852 1.505 1.765 3.851 1.894 4.926 1.894h6.045v-2.26h-4.71c-1.679 0-3.099-.107-3.959-1.398-.452-.667-.839-1.807-.839-4.044 0-2.259.408-3.185.71-3.657.774-1.184 2.151-1.442 3.937-1.442h5.1v-2.259zm11.742 3.378c.882-1.141 2.13-1.291 3.83-1.291 1.268 0 2.882.043 3.85 1.291.56.71.947 1.936.947 4.152 0 2.259-.366 3.442-.947 4.173-.968 1.227-2.603 1.269-3.85 1.269-1.313 0-2.84-.042-3.83-1.269-.603-.752-.968-1.871-.968-4.173 0-2.152.344-3.356.968-4.152m9.853 10.261c1.528-1.506 1.7-4.13 1.7-6.109 0-1.614-.065-4.496-1.7-6.11-1.613-1.592-4.303-1.592-6.002-1.592-1.786 0-4.346 0-6.003 1.592-1.742 1.678-1.742 4.41-1.742 6.11 0 2.044.108 4.56 1.742 6.109 1.68 1.592 4.174 1.592 6.003 1.592 1.742 0 4.367 0 6.002-1.592m3.631-11.38h6.927c.26 0 1.334.02 1.786.28.69.387.731 1.226.731 1.828 0 .474-.02 1.249-.537 1.7-.13.108-.538.409-1.72.409h-6.886v2.259h6.52c.967 0 1.656.129 1.978.473.388.409.366 1.119.366 1.57 0 .56.022 1.27-.495 1.7-.366.3-.86.322-1.312.322h-7.272v2.26h7.917c.99 0 2.216.02 3.163-.926.84-.86.924-2.022.924-3.14 0-.97-.063-1.894-.859-2.647a2.79 2.79 0 0 0-1.27-.666v-.087c.818-.042 1.592-.43 1.98-1.118.28-.473.43-1.227.43-2.453 0-1.076-.087-2.625-1.356-3.42-.86-.54-2.194-.603-3.227-.603h-7.788zm17.186 0h9.143l-4.218 9.767c-.063.13-.171.474-.344.474-.171 0-.322-.344-.365-.474zm2.172 11.38c.387.86.882 1.592 2.409 1.592 1.334 0 1.937-.515 2.41-1.592l5.055-11.38h1.27v-2.26h-17.49v2.26h1.27z"/><path d="M351.084 744.19h5.788l-2.452 6.132c-.087.215-.238.623-.432.623-.193 0-.344-.408-.429-.623zm.431 7.702c.538 1.27 1.12 1.7 2.473 1.7 1.292 0 1.937-.43 2.475-1.7l5.68-13.532h-2.99l-1.55 3.808h-7.25l-1.528-3.808h-2.99zm24.779-13.532h-2.839v6.626h-7.832v-6.626h-2.839v15.06h2.84v-6.175h7.831v6.175h2.84zm14.066 0l.086 11.445c0 .237-.021.495-.215.495-.172 0-.344-.345-.56-.689l-6.195-10.003c-.41-.667-.86-1.42-2.388-1.42-2.173 0-2.216 1.721-2.216 2.581v12.651h2.84l-.065-11.23c0-.345-.021-.689.258-.689.173 0 .279.258.41.473l6.065 9.94c.819 1.333 1.485 1.677 2.518 1.677 2.259 0 2.3-1.957 2.3-2.71v-12.52zm7.696 0c-.646 0-1.226 0-1.72.473-.517.495-.559 1.184-.559 1.764v10.671c0 .602.193 1.205.515 1.57.495.538 1.226.582 1.807.582h9.66v-2.26h-8.133c-.257 0-.558-.02-.774-.215-.236-.215-.236-.516-.236-.73v-3.035h8.927v-2.259h-8.927v-3.527c0-.237.086-.474.216-.582.171-.172.515-.193.967-.193h8.046v-2.259zm-113.44-25.763c-1.442 0-3.399.193-4.798 1.764-1.419 1.593-1.527 3.894-1.527 5.55 0 2.152.193 4.368 1.463 5.852 1.505 1.765 3.851 1.894 4.926 1.894h6.045v-2.26h-4.71c-1.679 0-3.099-.107-3.959-1.398-.452-.667-.839-1.807-.839-4.044 0-2.259.408-3.185.71-3.657.774-1.184 2.151-1.442 3.937-1.442h5.1v-2.259z"/><path d="M296.208 718.427h5.787l-2.453 6.132c-.085.215-.236.623-.43.623s-.344-.408-.43-.623zm.43 7.702c.538 1.27 1.119 1.7 2.474 1.7 1.29 0 1.936-.43 2.474-1.7l5.68-13.532h-2.99l-1.55 3.808h-7.25l-1.527-3.808h-2.991zm16.195 4.948c.108-.366.344-.71.603-.946.473-.41 1.075-.452 1.57-.452.516 0 1.118.043 1.592.452.26.236.495.58.603.946h2.043c-.215-.753-.73-1.721-1.463-2.26-.753-.558-1.85-.73-2.775-.73-1.119 0-2.109.258-2.754.73-.732.539-1.247 1.507-1.463 2.26zm6.562-18.48l.086 11.445c0 .237-.02.495-.215.495-.173 0-.344-.344-.56-.69l-6.196-10.002c-.408-.667-.86-1.42-2.388-1.42-2.172 0-2.215 1.72-2.215 2.582v12.65h2.84l-.065-11.231c0-.344-.02-.688.258-.688.172 0 .28.259.41.474l6.066 9.939c.817 1.333 1.484 1.677 2.516 1.677 2.26 0 2.302-1.957 2.302-2.71v-12.521zm9.784 0v12.8h-5.874v2.26h14.608v-2.26h-5.895v-12.8zm11.398 5.83h5.788l-2.452 6.132c-.087.215-.238.623-.432.623-.193 0-.344-.408-.429-.623zm.431 7.702c.538 1.27 1.12 1.7 2.473 1.7 1.292 0 1.937-.43 2.475-1.7l5.68-13.532h-2.99l-1.55 3.808h-7.25l-1.528-3.808h-2.99z"/></g></svg>