<svg xmlns="http://www.w3.org/2000/svg" width="151" height="88"><path fill-rule="evenodd" fill="#05055C" d="M101.511 49.173l9.246-8.757V17.79l-8.938 9.803-.308 21.58z"/><path fill-rule="evenodd" fill="#B80F0A" d="M92.992-.001l17.765 17.882V-.001H92.992z"/><path fill-rule="evenodd" fill="#00003E" d="M101.875 8.94l8.872 8.881-8.928 10.418.056-19.299z"/><path fill-rule="evenodd" fill="#B80F0A" d="M122.3 65.346l7.582 10.651-7.582 10.997V65.346z"/><path fill-rule="evenodd" fill="#00003E" d="M101.514 49.018l28.242-.391.124 27.371-28.366-26.98z"/><path fill-rule="evenodd" fill="#B80F0A" d="M101.472 49.061l21.974-20.323 20.524 20.323h-42.498z"/><path fill-rule="evenodd" fill="#05055C" d="M143.938 34.892L151 41.998l-7.062 7.107-7.062-7.107 7.062-7.106z"/><path fill-rule="evenodd" fill="#00003E" d="M93.824 86.352H83.568l-9.83-13.649v13.649h-8.129V56.057h8.129v13.745l9.499-13.745h9.594L81.725 70.8l12.099 15.552zM48.669 63.513c-4.224 0-7.649 3.449-7.649 7.703 0 4.253 3.425 7.702 7.649 7.702a7.613 7.613 0 0 0 5.865-2.759l7.531 3.541c-2.802 4.476-7.754 7.449-13.396 7.449-8.739 0-15.824-7.134-15.824-15.933 0-8.8 7.085-15.934 15.824-15.934 5.811 0 10.89 3.155 13.642 7.856l-7.404 3.622a7.623 7.623 0 0 0-6.238-3.247zm-27.226 4.862L10.478 86.352H2.302V56.057h8.176v19.261l10.965-19.261h8.176v30.295h-8.176V68.375z"/><path fill-rule="evenodd" fill="#B80F0A" d="M50.282 41.265H35.777c.209 1.287.769 2.311 1.678 3.071.91.76 2.07 1.14 3.482 1.14 1.687 0 3.137-.593 4.35-1.781l3.804 1.798c-.948 1.354-2.083 2.355-3.407 3.004-1.323.649-2.894.974-4.714.974-2.823 0-5.122-.896-6.897-2.688-1.775-1.792-2.663-4.037-2.663-6.733 0-2.763.885-5.057 2.655-6.883 1.77-1.825 3.988-2.738 6.657-2.738 2.834 0 5.138.913 6.914 2.738 1.775 1.826 2.663 4.237 2.663 7.233l-.017.865zm-6.28-6.042c-.878-.632-1.897-.949-3.057-.949-1.259 0-2.363.356-3.313 1.066-.597.443-1.149 1.226-1.657 2.347h9.792c-.298-1.01-.886-1.831-1.765-2.464zm-20.564 5.842c0-2.097-.1-3.517-.298-4.26-.199-.744-.538-1.299-1.017-1.665-.48-.366-1.073-.549-1.778-.549-.916 0-1.702.305-2.357.915-.657.611-1.111 1.443-1.365 2.497-.132.544-.198 1.787-.198 3.728v7.274h-4.483v-25.1h4.483v8.822c.882-.766 1.769-1.34 2.662-1.723a6.833 6.833 0 0 1 2.713-.575c1.787 0 3.292.622 4.516 1.865 1.047 1.076 1.571 2.657 1.571 4.744v11.967h-4.449v-7.94zm-16.607 7.94H2.316V34.807H0v-3.911h2.316v-6.675h4.515v6.675h2.68v3.911h-2.68v14.198z"/></svg>