<svg xmlns="http://www.w3.org/2000/svg" width="151" height="88"><path fill-rule="evenodd" fill="#3C3C46" d="M143.938 49.104l-.044-.043h-14.136l.122 26.935.002.001-7.582 10.996V68.789l-20.706-19.694-.083.078.002-.112h-.041l.042-.039v-.004h-.001.001l.305-21.425.002-.002.054-18.65-8.883-8.942h17.765v17.792-.001 22.626l-2.553 2.419 15.242-14.097 15.835 15.68-2.405-2.42 7.062-7.106L151 41.998l-7.062 7.106zM93.824 86.352H83.568l-9.83-13.65v13.65h-8.129V56.057h8.129v13.745l9.499-13.745h9.594L81.725 70.8l12.099 15.552zM48.669 63.513c-4.224 0-7.649 3.449-7.649 7.703 0 4.253 3.425 7.702 7.649 7.702a7.613 7.613 0 0 0 5.865-2.759l7.531 3.541c-2.802 4.476-7.754 7.449-13.396 7.449-8.74 0-15.824-7.134-15.824-15.933 0-8.8 7.084-15.934 15.824-15.934 5.811 0 10.89 3.155 13.641 7.856l-7.403 3.622a7.623 7.623 0 0 0-6.238-3.247zM35.777 41.265c.209 1.287.769 2.311 1.678 3.071.91.76 2.07 1.14 3.482 1.14 1.687 0 3.137-.594 4.35-1.781l3.804 1.797c-.948 1.355-2.084 2.356-3.407 3.005s-2.894.974-4.714.974c-2.823 0-5.122-.896-6.897-2.689-1.775-1.791-2.663-4.035-2.663-6.732 0-2.763.885-5.057 2.655-6.883 1.769-1.825 3.988-2.738 6.657-2.738 2.834 0 5.138.913 6.914 2.738 1.775 1.826 2.663 4.237 2.663 7.233l-.017.865H35.777zm8.225-6.042c-.878-.632-1.897-.949-3.057-.949-1.259 0-2.363.356-3.313 1.065-.597.444-1.149 1.227-1.657 2.348h9.792c-.298-1.01-.887-1.831-1.765-2.464zM21.443 68.374L10.478 86.352H2.302V56.057h8.176v19.261l10.965-19.261h8.176v30.295h-8.176V68.374zm1.994-27.309c0-2.097-.099-3.517-.297-4.261-.199-.743-.538-1.298-1.017-1.664-.48-.367-1.073-.549-1.778-.549-.916 0-1.702.304-2.357.915-.657.61-1.111 1.443-1.365 2.497-.132.543-.199 1.787-.199 3.728v7.274h-4.482v-25.1h4.482v8.822c.883-.766 1.77-1.341 2.663-1.723a6.833 6.833 0 0 1 2.713-.575c1.786 0 3.292.622 4.516 1.864 1.047 1.077 1.571 2.658 1.571 4.744v11.968h-4.45v-7.94zm-16.606 7.94H2.316V34.807H0v-3.912h2.316v-6.674h4.515v6.674h2.68v3.912h-2.68v14.198z"/></svg>